<svg version="1.1" id="Layer_1" xmlns="http://www.w3.org/2000/svg" xmlns:xlink="http://www.w3.org/1999/xlink" x="0px" y="0px"
	 width="100%" viewBox="0 0 500 500" enable-background="new 0 0 500 500" xml:space="preserve">
<path fill="#FFFFFF" opacity="1.000000" stroke="none" 
	d="
M491.039001,501.000000 
	C327.366760,501.000000 164.201263,501.000000 1.017893,501.000000 
	C1.017893,334.346466 1.017893,167.692947 1.017893,1.019711 
	C167.652313,1.019711 334.304626,1.019711 500.978455,1.019711 
	C500.978455,167.651108 500.978455,334.302216 500.978455,501.000000 
	C497.848663,501.000000 494.697235,501.000000 491.039001,501.000000 
M215.012543,279.979340 
	C213.635345,279.001434 212.325562,277.905396 210.865555,277.072662 
	C208.534790,275.743286 206.104187,274.588898 203.160873,272.963348 
	C192.918961,264.906067 181.003860,265.535004 171.092117,273.649261 
	C171.051804,272.339630 170.983368,271.030121 170.975586,269.720306 
	C170.912994,259.172089 170.916473,259.172058 160.275574,258.069214 
	C159.275726,257.385925 158.306702,256.173523 157.270569,256.113190 
	C153.293137,255.881454 149.294174,256.019104 145.303253,256.019104 
	C137.736176,256.019043 130.169113,256.019104 122.667747,256.019104 
	C122.667747,276.742737 122.667747,296.763672 122.667747,317.075378 
	C124.972565,317.075378 126.958839,317.075378 129.342316,317.738922 
	C129.414719,321.213989 131.081192,322.856598 134.656433,322.660706 
	C137.465820,322.506775 140.294327,322.529846 143.106812,322.650238 
	C146.237778,322.784332 147.658142,321.576111 147.549271,318.298096 
	C147.389816,313.496887 147.235214,308.658936 147.690384,303.895081 
	C147.836899,302.361725 149.842499,299.861328 151.121719,299.781097 
	C156.372040,299.451630 161.670212,299.884674 167.108383,300.774414 
	C168.865814,308.629639 173.100204,314.382263 181.175919,317.701630 
	C188.211349,325.265442 202.839050,325.534973 210.644897,318.370514 
	C212.088745,317.045319 214.006134,316.236053 215.764984,316.017029 
	C217.828995,316.364105 219.893005,316.711182 222.413834,317.664368 
	C222.754517,321.608765 224.924881,323.102905 228.792068,322.674194 
	C230.758377,322.456207 232.791428,322.443817 234.754745,322.674805 
	C239.372421,323.218079 240.709702,321.305481 240.716934,316.738647 
	C240.728943,309.159332 241.161285,301.528137 242.178650,294.022064 
	C242.825607,289.248932 245.833160,288.043579 249.623016,290.658966 
	C252.546036,292.676117 254.302948,292.079285 256.327332,289.706940 
	C257.157135,288.734558 258.411285,288.124268 259.556458,288.250122 
	C259.697815,292.880493 259.577240,297.537231 260.039673,302.135315 
	C260.803253,309.727417 264.399078,315.440826 272.221039,318.705475 
	C276.784088,323.896790 282.773621,325.133148 289.190979,322.243103 
	C290.343750,321.723969 291.595612,320.853760 292.726501,320.958405 
	C297.049835,321.358490 301.352570,322.027466 305.643768,322.715820 
	C310.122498,323.434235 312.018097,321.359894 312.871368,317.029663 
	C314.225952,317.048004 315.580505,317.066345 317.260834,317.821869 
	C317.067902,321.372284 318.608002,322.983948 322.278290,322.616821 
	C324.401367,322.404449 326.585022,322.386139 328.703217,322.622589 
	C333.155304,323.119568 335.008636,321.546173 334.721191,316.838837 
	C334.369965,311.087097 334.513031,305.291290 334.759216,299.528107 
	C334.811127,298.313873 336.236755,297.158325 337.043060,296.915833 
	C337.043060,303.529480 337.043060,310.143097 337.043060,317.072632 
	C339.665405,317.072632 341.804199,317.072632 344.322571,317.785828 
	C344.725342,319.174225 345.005829,321.712311 345.550079,321.770142 
	C350.135468,322.257843 354.783783,322.537018 359.376343,322.262573 
	C360.335541,322.205261 361.048676,319.528961 362.059998,318.200226 
	C362.549530,317.557037 363.466949,317.239502 365.011719,316.977203 
	C366.987610,317.011810 368.963470,317.046417 371.280670,317.813263 
	C372.296417,319.396149 373.290649,322.315125 374.331543,322.331848 
	C378.964783,322.406342 383.616058,321.686798 388.240356,321.094818 
	C388.490387,321.062805 388.688141,319.583496 388.685913,318.778564 
	C388.657684,308.492249 388.875763,298.193909 388.440460,287.923645 
	C388.080292,279.426086 383.428619,274.107758 375.276001,271.782288 
	C367.312347,265.028900 362.215485,265.778534 352.021271,275.478455 
	C344.438019,266.025726 335.883423,264.057098 326.345001,273.597351 
	C326.141296,271.432343 326.004883,269.982178 325.852142,268.358917 
	C320.586487,268.358917 315.468018,268.358917 310.162506,268.358917 
	C310.043640,269.942810 309.933685,271.407410 308.991028,272.982178 
	C307.033264,272.958252 305.075500,272.934326 303.038971,272.051331 
	C302.941193,270.819550 302.843384,269.587769 302.746490,268.367401 
	C297.282288,268.367401 292.251801,268.367401 287.079407,268.367401 
	C286.927155,269.838623 286.793793,271.127472 285.776184,272.169098 
	C282.521423,271.778534 279.266663,271.387970 275.848267,270.174835 
	C275.013031,269.506409 274.201904,268.298981 273.338501,268.260345 
	C268.943634,268.063721 264.535278,268.169617 259.826782,268.169617 
	C259.730316,269.853363 259.647919,271.291107 258.863708,273.045776 
	C256.903870,272.702454 254.944046,272.359131 252.696365,271.390381 
	C249.251785,270.124664 245.741577,267.715302 242.380692,267.908112 
	C238.872177,268.109436 235.507462,270.816742 232.075531,272.430511 
	C231.981567,271.407959 231.849991,269.975952 231.717743,268.536560 
	C226.334854,268.536560 221.149170,268.536560 215.707520,268.536560 
	C215.707520,272.540436 215.707520,276.177124 215.012543,279.979340 
z"/>
<path fill="#020202" opacity="1.000000" stroke="none" 
	d="
M370.939362,317.081055 
	C368.963470,317.046417 366.987610,317.011810 364.630554,316.422394 
	C364.236511,308.546295 364.336273,301.222137 364.147400,293.905396 
	C364.084381,291.464905 363.634308,288.894958 362.692780,286.666595 
	C362.084167,285.226227 360.273224,283.405609 358.979950,283.388855 
	C357.645721,283.371582 355.626831,285.076324 355.078033,286.484070 
	C354.021637,289.193573 353.392578,292.211792 353.296204,295.125458 
	C353.057098,302.353241 353.217651,309.594238 353.217651,317.072632 
	C349.565613,317.072632 346.754303,317.072632 343.943024,317.072632 
	C341.804199,317.072632 339.665405,317.072632 337.043060,317.072632 
	C337.043060,310.143097 337.043060,303.529480 337.153015,296.022644 
	C336.696350,292.071472 336.598450,288.822266 335.448151,286.002380 
	C333.902008,282.212067 330.195190,282.040009 328.372131,285.701508 
	C327.025848,288.405365 326.317444,291.652985 326.192505,294.693939 
	C325.889862,302.060333 326.094177,309.447540 326.094177,317.084686 
	C322.531433,317.084686 319.733246,317.084686 316.935089,317.084656 
	C315.580505,317.066345 314.225952,317.048004 312.158508,316.961823 
	C311.014557,316.896820 310.583527,316.899689 310.087372,316.444153 
	C309.956116,301.614532 309.889954,287.243256 309.823761,272.872009 
	C309.933685,271.407410 310.043640,269.942810 310.162506,268.358917 
	C315.468018,268.358917 320.586487,268.358917 325.852142,268.358917 
	C326.004883,269.982178 326.141296,271.432343 326.345001,273.597351 
	C335.883423,264.057098 344.438019,266.025726 352.021271,275.478455 
	C362.215485,265.778534 367.312347,265.028900 375.620728,272.338318 
	C377.339264,277.229584 379.540131,281.496185 379.906830,285.915009 
	C380.574677,293.962189 380.156097,302.099670 380.186493,310.199493 
	C380.194824,312.421631 380.187744,314.643799 380.187744,317.081055 
	C376.535431,317.081055 373.737396,317.081055 370.939362,317.081055 
z"/>
<path fill="#030303" opacity="1.000000" stroke="none" 
	d="
M271.939026,318.094818 
	C264.399078,315.440826 260.803253,309.727417 260.039673,302.135315 
	C259.577240,297.537231 259.697815,292.880493 259.663696,287.478668 
	C259.644775,285.779449 259.518585,284.851685 259.490234,283.538605 
	C259.580536,279.678467 259.573059,276.203674 259.565552,272.728851 
	C259.647919,271.291107 259.730316,269.853363 259.826782,268.169617 
	C264.535278,268.169617 268.943634,268.063721 273.338501,268.260345 
	C274.201904,268.298981 275.013031,269.506409 275.828003,270.947083 
	C275.907104,272.460419 276.006470,273.201538 276.000854,274.405029 
	C275.900330,278.340973 275.787964,281.819641 275.939087,285.286835 
	C276.125183,289.557251 276.134064,293.898102 276.972382,298.056732 
	C277.596619,301.153290 279.615631,303.533966 283.630341,300.501251 
	C284.334839,299.698822 284.987488,299.191467 285.024689,298.642456 
	C285.616455,289.903564 286.129456,281.159332 286.660431,272.416321 
	C286.793793,271.127472 286.927155,269.838623 287.079407,268.367401 
	C292.251801,268.367401 297.282288,268.367401 302.746490,268.367401 
	C302.843384,269.587769 302.941193,270.819550 302.975708,272.945740 
	C302.912445,288.146057 302.912445,302.451935 302.912445,316.817780 
	C300.581207,316.964752 298.780640,317.078278 296.527618,317.108215 
	C293.041290,317.024658 290.007446,317.024658 286.899628,317.024658 
	C286.786438,314.647888 286.705811,312.955017 286.557343,309.837036 
	C283.050964,316.867523 277.692596,317.897736 271.939026,318.094818 
z"/>
<path fill="#070707" opacity="1.000000" stroke="none" 
	d="
M128.945114,317.075378 
	C126.958839,317.075378 124.972565,317.075378 122.667747,317.075378 
	C122.667747,296.763672 122.667747,276.742737 122.667747,256.019104 
	C130.169113,256.019104 137.736176,256.019043 145.303253,256.019104 
	C149.294174,256.019104 153.293137,255.881454 157.270569,256.113190 
	C158.306702,256.173523 159.275726,257.385925 160.274261,258.807556 
	C160.323090,259.963226 160.373215,260.380615 160.318237,261.260132 
	C160.213135,264.642975 160.213135,267.563629 160.213135,271.091187 
	C152.775528,271.091187 145.916306,271.091187 139.244873,271.091187 
	C139.244873,274.127869 139.244873,276.516449 139.244873,278.909393 
	C141.790375,278.909393 143.925262,278.909393 146.510071,279.021606 
	C151.274323,279.133820 155.588638,279.133820 159.849548,279.133820 
	C160.165649,281.557098 160.374130,283.155243 160.438126,285.205353 
	C160.293655,288.247375 160.293655,290.837463 160.293655,293.926147 
	C152.859512,293.926147 146.122253,293.926147 138.831039,293.926147 
	C138.831039,301.804596 138.831039,309.187805 138.831039,317.075378 
	C135.158310,317.075378 132.051712,317.075378 128.945114,317.075378 
z"/>
<path fill="#030303" opacity="1.000000" stroke="none" 
	d="
M180.942749,317.072083 
	C173.100204,314.382263 168.865814,308.629639 167.085480,299.983215 
	C166.991928,294.432465 166.921295,289.672974 166.970947,284.567932 
	C168.465225,281.031525 169.839218,277.840576 171.213211,274.649658 
	C181.003860,265.535004 192.918961,264.906067 203.510193,273.500336 
	C208.425400,279.037140 209.320419,285.295258 209.705292,291.647797 
	C210.610001,306.580841 202.943848,316.690308 189.819687,317.738739 
	C186.897110,317.972198 183.903595,317.317749 180.942749,317.072083 
M193.316818,287.907990 
	C192.583298,284.881226 190.901489,282.002930 187.653900,283.083801 
	C185.527328,283.791595 183.157578,286.586639 182.698380,288.817657 
	C182.029724,292.066223 182.555908,295.753906 183.370850,299.057495 
	C184.109268,302.050903 185.973557,302.540283 189.814789,301.839111 
	C195.131104,298.533875 194.237717,293.605530 193.316818,287.907990 
z"/>
<path fill="#030303" opacity="1.000000" stroke="none" 
	d="
M221.957016,317.058289 
	C219.893005,316.711182 217.828995,316.364105 215.883911,315.142303 
	C215.904388,302.782990 215.805954,291.298431 215.707520,279.813843 
	C215.707520,276.177124 215.707520,272.540436 215.707520,268.536560 
	C221.149170,268.536560 226.334854,268.536560 231.717743,268.536560 
	C231.849991,269.975952 231.981567,271.407959 232.075531,272.430511 
	C235.507462,270.816742 238.872177,268.109436 242.380692,267.908112 
	C245.741577,267.715302 249.251785,270.124664 252.858444,272.063660 
	C255.665436,274.632507 255.529236,276.433044 253.190964,278.639526 
	C250.837814,280.859985 248.812958,283.428406 246.360107,285.989380 
	C244.850510,285.755096 243.464630,285.624115 242.427155,284.953827 
	C237.745941,281.929352 235.023849,282.666962 233.606506,288.107361 
	C232.613159,291.920288 232.220108,295.947235 232.040207,299.900513 
	C231.785934,305.487854 231.975769,311.095428 231.975769,317.058289 
	C228.209335,317.058289 225.083176,317.058289 221.957016,317.058289 
z"/>
<path fill="#898989" opacity="1.000000" stroke="none" 
	d="
M215.360016,279.896606 
	C215.805954,291.298431 215.904388,302.782990 215.853882,314.728119 
	C214.006134,316.236053 212.088745,317.045319 210.644897,318.370514 
	C202.839050,325.534973 188.211349,325.265442 181.059326,317.386841 
	C183.903595,317.317749 186.897110,317.972198 189.819687,317.738739 
	C202.943848,316.690308 210.610001,306.580841 209.705292,291.647797 
	C209.320419,285.295258 208.425400,279.037140 203.787659,273.698914 
	C206.104187,274.588898 208.534790,275.743286 210.865555,277.072662 
	C212.325562,277.905396 213.635345,279.001434 215.360016,279.896606 
z"/>
<path fill="#8E8E8E" opacity="1.000000" stroke="none" 
	d="
M166.850647,284.913452 
	C166.921295,289.672974 166.991928,294.432465 167.006683,299.614594 
	C161.670212,299.884674 156.372040,299.451630 151.121719,299.781097 
	C149.842499,299.861328 147.836899,302.361725 147.690384,303.895081 
	C147.235214,308.658936 147.389816,313.496887 147.549271,318.298096 
	C147.658142,321.576111 146.237778,322.784332 143.106812,322.650238 
	C140.294327,322.529846 137.465820,322.506775 134.656433,322.660706 
	C131.081192,322.856598 129.414719,321.213989 129.143707,317.407166 
	C132.051712,317.075378 135.158310,317.075378 138.831039,317.075378 
	C138.831039,309.187805 138.831039,301.804596 138.831039,293.926147 
	C146.122253,293.926147 152.859512,293.926147 160.293655,293.926147 
	C160.293655,290.837463 160.293655,288.247375 160.826157,285.194824 
	C163.189316,284.792694 165.019989,284.853088 166.850647,284.913452 
z"/>
<path fill="#8E8E8E" opacity="1.000000" stroke="none" 
	d="
M222.185425,317.361328 
	C225.083176,317.058289 228.209335,317.058289 231.975769,317.058289 
	C231.975769,311.095428 231.785934,305.487854 232.040207,299.900513 
	C232.220108,295.947235 232.613159,291.920288 233.606506,288.107361 
	C235.023849,282.666962 237.745941,281.929352 242.427155,284.953827 
	C243.464630,285.624115 244.850510,285.755096 246.748230,286.058533 
	C251.022858,288.166260 254.314392,288.484253 257.131592,284.624634 
	C257.504761,284.113403 258.620544,284.144165 259.392395,283.923920 
	C259.518585,284.851685 259.644775,285.779449 259.621704,287.028259 
	C258.411285,288.124268 257.157135,288.734558 256.327332,289.706940 
	C254.302948,292.079285 252.546036,292.676117 249.623016,290.658966 
	C245.833160,288.043579 242.825607,289.248932 242.178650,294.022064 
	C241.161285,301.528137 240.728943,309.159332 240.716934,316.738647 
	C240.709702,321.305481 239.372421,323.218079 234.754745,322.674805 
	C232.791428,322.443817 230.758377,322.456207 228.792068,322.674194 
	C224.924881,323.102905 222.754517,321.608765 222.185425,317.361328 
z"/>
<path fill="#8B8B8B" opacity="1.000000" stroke="none" 
	d="
M371.110016,317.447144 
	C373.737396,317.081055 376.535431,317.081055 380.187744,317.081055 
	C380.187744,314.643799 380.194824,312.421631 380.186493,310.199493 
	C380.156097,302.099670 380.574677,293.962189 379.906830,285.915009 
	C379.540131,281.496185 377.339264,277.229584 375.897156,272.539307 
	C383.428619,274.107758 388.080292,279.426086 388.440460,287.923645 
	C388.875763,298.193909 388.657684,308.492249 388.685913,318.778564 
	C388.688141,319.583496 388.490387,321.062805 388.240356,321.094818 
	C383.616058,321.686798 378.964783,322.406342 374.331543,322.331848 
	C373.290649,322.315125 372.296417,319.396149 371.110016,317.447144 
z"/>
<path fill="#878787" opacity="1.000000" stroke="none" 
	d="
M344.132812,317.429230 
	C346.754303,317.072632 349.565613,317.072632 353.217651,317.072632 
	C353.217651,309.594238 353.057098,302.353241 353.296204,295.125458 
	C353.392578,292.211792 354.021637,289.193573 355.078033,286.484070 
	C355.626831,285.076324 357.645721,283.371582 358.979950,283.388855 
	C360.273224,283.405609 362.084167,285.226227 362.692780,286.666595 
	C363.634308,288.894958 364.084381,291.464905 364.147400,293.905396 
	C364.336273,301.222137 364.236511,308.546295 364.220032,316.321075 
	C363.466949,317.239502 362.549530,317.557037 362.059998,318.200226 
	C361.048676,319.528961 360.335541,322.205261 359.376343,322.262573 
	C354.783783,322.537018 350.135468,322.257843 345.550079,321.770142 
	C345.005829,321.712311 344.725342,319.174225 344.132812,317.429230 
z"/>
<path fill="#898989" opacity="1.000000" stroke="none" 
	d="
M317.097961,317.453278 
	C319.733246,317.084686 322.531433,317.084686 326.094177,317.084686 
	C326.094177,309.447540 325.889862,302.060333 326.192505,294.693939 
	C326.317444,291.652985 327.025848,288.405365 328.372131,285.701508 
	C330.195190,282.040009 333.902008,282.212067 335.448151,286.002380 
	C336.598450,288.822266 336.696350,292.071472 337.146179,295.552582 
	C336.236755,297.158325 334.811127,298.313873 334.759216,299.528107 
	C334.513031,305.291290 334.369965,311.087097 334.721191,316.838837 
	C335.008636,321.546173 333.155304,323.119568 328.703217,322.622589 
	C326.585022,322.386139 324.401367,322.404449 322.278290,322.616821 
	C318.608002,322.983948 317.067902,321.372284 317.097961,317.453278 
z"/>
<path fill="#878787" opacity="1.000000" stroke="none" 
	d="
M296.980103,317.191772 
	C298.780640,317.078278 300.581207,316.964752 302.912445,316.817780 
	C302.912445,302.451935 302.912445,288.146057 303.015076,273.375275 
	C305.075500,272.934326 307.033264,272.958252 309.407410,272.927094 
	C309.889954,287.243256 309.956116,301.614532 309.778992,316.684753 
	C307.400848,320.387207 299.446869,321.227509 297.177704,318.640991 
	C296.909576,318.335358 297.036377,317.683289 296.980103,317.191772 
z"/>
<path fill="#959595" opacity="1.000000" stroke="none" 
	d="
M296.527618,317.108215 
	C297.036377,317.683289 296.909576,318.335358 297.177704,318.640991 
	C299.446869,321.227509 307.400848,320.387207 309.844116,317.143127 
	C310.583527,316.899689 311.014557,316.896820 311.753113,316.993774 
	C312.018097,321.359894 310.122498,323.434235 305.643768,322.715820 
	C301.352570,322.027466 297.049835,321.358490 292.726501,320.958405 
	C291.595612,320.853760 290.343750,321.723969 289.190979,322.243103 
	C282.773621,325.133148 276.784088,323.896790 272.080017,318.400146 
	C277.692596,317.897736 283.050964,316.867523 286.557343,309.837036 
	C286.705811,312.955017 286.786438,314.647888 286.899628,317.024658 
	C290.007446,317.024658 293.041290,317.024658 296.527618,317.108215 
z"/>
<path fill="#E7E7E7" opacity="1.000000" stroke="none" 
	d="
M166.970947,284.567932 
	C165.019989,284.853088 163.189316,284.792694 160.970627,284.742859 
	C160.374130,283.155243 160.165649,281.557098 159.849548,279.133820 
	C155.588638,279.133820 151.274323,279.133820 146.599518,278.664917 
	C147.527573,277.381012 148.757141,275.996216 150.115479,275.855652 
	C154.556580,275.396027 159.062912,275.567780 163.504425,275.110657 
	C165.026276,274.954010 167.305130,273.990753 167.745834,272.829590 
	C170.404358,265.824829 167.645035,261.537506 160.423340,260.797974 
	C160.373215,260.380615 160.323090,259.963226 160.375946,259.247070 
	C170.916473,259.172058 170.912994,259.172089 170.975586,269.720306 
	C170.983368,271.030121 171.051804,272.339630 171.152664,274.149475 
	C169.839218,277.840576 168.465225,281.031525 166.970947,284.567932 
z"/>
<path fill="#D9D9D9" opacity="1.000000" stroke="none" 
	d="
M276.105835,273.942627 
	C276.006470,273.201538 275.907104,272.460419 275.909821,271.358368 
	C279.266663,271.387970 282.521423,271.778534 286.218323,272.292725 
	C286.129456,281.159332 285.616455,289.903564 285.024689,298.642456 
	C284.987488,299.191467 284.334839,299.698822 283.612122,299.900299 
	C283.204468,293.317749 283.133728,287.060547 283.107147,280.803131 
	C283.077728,273.864227 283.095337,273.864166 276.105835,273.942627 
z"/>
<path fill="#848484" opacity="1.000000" stroke="none" 
	d="
M259.490234,283.538605 
	C258.620544,284.144165 257.504761,284.113403 257.131592,284.624634 
	C254.314392,288.484253 251.022858,288.166260 247.032379,285.913452 
	C248.812958,283.428406 250.837814,280.859985 253.190964,278.639526 
	C255.529236,276.433044 255.665436,274.632507 253.002380,272.376404 
	C254.944046,272.359131 256.903870,272.702454 259.214630,272.887329 
	C259.573059,276.203674 259.580536,279.678467 259.490234,283.538605 
z"/>
<path fill="#8E8E8E" opacity="1.000000" stroke="none" 
	d="
M276.000854,274.405029 
	C283.095337,273.864166 283.077728,273.864227 283.107147,280.803131 
	C283.133728,287.060547 283.204468,293.317749 283.273956,300.175995 
	C279.615631,303.533966 277.596619,301.153290 276.972382,298.056732 
	C276.134064,293.898102 276.125183,289.557251 275.939087,285.286835 
	C275.787964,281.819641 275.900330,278.340973 276.000854,274.405029 
z"/>
<path fill="#8E8E8E" opacity="1.000000" stroke="none" 
	d="
M160.318237,261.260132 
	C167.645035,261.537506 170.404358,265.824829 167.745834,272.829590 
	C167.305130,273.990753 165.026276,274.954010 163.504425,275.110657 
	C159.062912,275.567780 154.556580,275.396027 150.115479,275.855652 
	C148.757141,275.996216 147.527573,277.381012 146.149582,278.552704 
	C143.925262,278.909393 141.790375,278.909393 139.244873,278.909393 
	C139.244873,276.516449 139.244873,274.127869 139.244873,271.091187 
	C145.916306,271.091187 152.775528,271.091187 160.213135,271.091187 
	C160.213135,267.563629 160.213135,264.642975 160.318237,261.260132 
z"/>
<path fill="#848484" opacity="1.000000" stroke="none" 
	d="
M189.009796,301.594910 
	C185.973557,302.540283 184.109268,302.050903 183.370850,299.057495 
	C182.555908,295.753906 182.029724,292.066223 182.698380,288.817657 
	C183.157578,286.586639 185.527328,283.791595 187.653900,283.083801 
	C190.901489,282.002930 192.583298,284.881226 192.920868,288.412476 
	C191.353210,293.142975 190.181503,297.368927 189.009796,301.594910 
z"/>
<path fill="#D9D9D9" opacity="1.000000" stroke="none" 
	d="
M189.412292,301.717010 
	C190.181503,297.368927 191.353210,293.142975 192.892853,288.786194 
	C194.237717,293.605530 195.131104,298.533875 189.412292,301.717010 
z"/>
</svg>