<svg version="1.1" id="Layer_1" xmlns="http://www.w3.org/2000/svg" xmlns:xlink="http://www.w3.org/1999/xlink" x="0px" y="0px"
	 width="100%" viewBox="0 0 500 500" enable-background="new 0 0 500 500" xml:space="preserve">
<path fill="#FFFFFF" opacity="1.000000" stroke="none" 
	d="
M501.000000,318.000000 
	C501.000000,378.986206 501.000000,439.972443 501.000000,500.979309 
	C334.384796,500.979309 167.769577,500.979309 1.077186,500.979309 
	C1.077186,334.422485 1.077186,167.844940 1.077186,1.133691 
	C167.666595,1.133691 334.333282,1.133691 501.000000,1.126593 
	C501.000000,76.768974 501.000000,152.418457 500.653809,228.696930 
	C499.122040,228.523209 498.033813,227.467773 496.732178,226.966354 
	C493.198273,225.605042 489.573914,224.478470 485.694336,223.070496 
	C477.621948,211.415833 455.468536,207.654663 444.548187,223.982422 
	C440.729187,223.077820 437.285034,222.124695 433.571075,220.971939 
	C418.672424,208.297409 405.090485,211.116272 392.148163,224.914169 
	C391.929871,220.679413 391.779785,217.767380 391.632629,214.912613 
	C381.369537,214.912613 371.610626,214.912613 361.595093,214.912613 
	C361.441925,217.422501 361.302521,219.706894 360.695496,222.059875 
	C356.225891,222.048599 352.223969,221.968735 348.138245,221.438782 
	C348.054504,218.914749 348.054504,216.840805 348.054504,214.971069 
	C337.643646,214.971069 327.945984,214.971069 317.984192,214.971069 
	C317.984192,229.346619 318.010254,243.424316 317.946686,257.501587 
	C317.939819,259.027710 317.414490,260.551483 316.796509,261.805145 
	C316.294617,259.899231 315.988800,258.265259 315.979858,256.629639 
	C315.931396,247.797714 316.006439,238.965042 315.940918,230.133331 
	C315.885712,222.690781 313.401672,220.212494 306.078949,220.055695 
	C303.247803,219.995087 300.416138,219.958084 297.475525,219.457809 
	C297.235107,217.608215 297.103851,216.211151 296.980072,214.893433 
	C286.790070,214.893433 277.081085,214.893433 266.933807,214.893433 
	C266.933807,218.383850 266.933807,221.666458 266.578491,225.127075 
	C262.738983,224.292084 259.254822,223.279068 255.516327,222.047729 
	C241.362808,208.093781 228.228729,210.974915 215.056915,225.161209 
	C215.056915,220.785706 215.056915,217.899857 215.056915,215.012604 
	C204.696487,215.012604 194.828583,215.012604 184.652237,215.012604 
	C184.652237,223.829102 184.652237,232.305450 184.319000,240.751709 
	C183.257996,239.945984 182.418274,239.247757 181.819962,238.382584 
	C176.618530,230.861328 169.993317,225.311569 160.648026,222.894745 
	C142.274139,207.679703 116.366234,209.977722 100.205734,227.497772 
	C100.087402,220.480026 100.043236,213.995712 99.981194,207.511566 
	C99.904449,199.491592 97.472122,197.032547 89.623589,197.009918 
	C86.796402,197.001770 83.969223,196.993256 81.067139,196.537903 
	C80.894356,194.693802 80.796471,193.296692 80.706810,192.017029 
	C56.928886,192.017029 33.656811,192.017029 10.247208,192.017029 
	C10.247208,230.072983 10.247208,267.936737 10.247208,306.158752 
	C14.351467,306.158752 18.161013,306.158752 21.985342,306.587341 
	C22.017244,308.678528 21.819914,310.377716 22.096243,311.996033 
	C22.666603,315.336273 24.051180,318.000641 28.121157,317.977295 
	C35.769405,317.933441 43.445450,318.329315 51.050503,317.755188 
	C53.438030,317.574951 56.489464,315.350586 57.691452,313.198608 
	C59.028915,310.803955 58.846725,307.428589 58.897636,304.472748 
	C59.035069,296.494049 59.149548,288.504120 58.864918,280.533203 
	C58.705223,276.061096 60.429878,274.761566 64.695450,274.871429 
	C74.166786,275.115356 83.648407,274.960175 93.321487,275.285767 
	C96.318665,288.991699 103.270966,299.204926 116.037277,305.343750 
	C117.973267,307.733643 119.618515,310.115509 121.811790,311.771545 
	C136.118164,322.573578 166.657593,322.097961 178.653015,306.963074 
	C180.043121,305.209106 182.571304,304.357178 184.648224,303.528351 
	C185.536118,304.646545 186.303757,305.835205 187.166931,305.909149 
	C190.415482,306.187469 193.695114,306.102661 196.986252,306.582520 
	C197.097778,316.766602 198.251480,317.933136 207.834518,317.939514 
	C212.992920,317.942963 218.151352,317.947754 223.309738,317.936615 
	C230.860092,317.920319 232.710266,315.799957 232.986160,308.110962 
	C233.502777,293.712524 233.785889,279.275757 235.143829,264.947601 
	C236.101242,254.845535 241.165314,252.958969 249.316971,258.539307 
	C253.240860,261.225464 256.654694,261.836884 260.094788,257.499908 
	C261.854889,255.280930 264.582520,253.829376 266.927490,252.494843 
	C267.020538,259.421814 266.685730,265.913208 267.172882,272.342255 
	C268.276825,286.910126 271.660706,300.340454 287.186401,306.854797 
	C287.663055,308.219635 288.034363,309.360107 288.764801,310.181000 
	C298.235840,320.825226 312.774353,322.936737 325.517120,315.786102 
	C326.911255,315.003815 329.027557,314.923950 330.652100,315.265045 
	C333.561523,315.875977 336.312744,317.692505 339.199341,317.868317 
	C345.835815,318.272400 352.515686,317.898621 359.174500,318.023529 
	C364.000366,318.114075 365.993896,315.193848 366.887878,311.135284 
	C367.238922,309.541718 366.995514,307.817200 367.453217,306.086060 
	C369.911438,306.073151 371.939240,306.126465 373.969727,306.614868 
	C374.009277,315.754425 374.175537,316.956268 380.433350,317.432404 
	C388.619751,318.055359 396.929718,317.386475 405.155853,316.824432 
	C406.511597,316.731812 408.488403,314.511871 408.826569,312.977264 
	C409.636322,309.302032 409.880676,305.452301 409.925659,301.667938 
	C410.056091,290.706360 409.891418,279.740875 410.071075,268.780670 
	C410.097443,267.171814 411.367279,265.583374 412.158203,264.446503 
	C412.254639,278.447235 412.254639,291.986908 412.254639,306.143585 
	C416.455109,306.143585 420.212372,306.143585 423.999542,306.561310 
	C424.147522,315.977020 426.187714,317.956085 435.367157,317.962952 
	C440.866638,317.967072 446.366150,317.977356 451.865570,317.957825 
	C458.490723,317.934296 460.930969,315.557709 460.942657,309.052490 
	C460.966339,295.887146 460.895874,282.721100 461.036652,269.557190 
	C461.052826,268.047455 462.166748,266.549469 462.833252,265.508118 
	C462.894775,279.297729 462.894775,292.625214 462.894775,306.156189 
	C467.360077,306.156189 471.164368,306.156189 474.988892,306.590942 
	C475.084045,317.292633 475.754700,317.952667 486.082092,317.964905 
	C491.054718,317.970795 496.027374,317.987946 501.000000,318.000000 
z"/>
<path fill="#848484" opacity="1.000000" stroke="none" 
	d="
M485.985443,223.258820 
	C489.573914,224.478470 493.198273,225.605042 496.732178,226.966354 
	C498.033813,227.467773 499.122040,228.523209 500.653809,229.162964 
	C501.000000,257.020905 501.000000,285.041779 500.531616,313.522827 
	C495.639099,313.981049 491.214996,313.983521 486.790863,313.976135 
	C479.468719,313.963959 479.179047,313.674103 479.375275,306.068512 
	C484.114288,305.970673 488.390198,305.970673 493.164276,305.970673 
	C493.164276,303.885132 493.164307,302.265045 493.164246,300.644958 
	C493.163544,285.190155 493.048218,269.734253 493.200928,254.280960 
	C493.309326,243.313538 491.761536,232.816574 485.985443,223.258820 
z"/>
<path fill="#D6D6D6" opacity="1.000000" stroke="none" 
	d="
M478.912140,306.166351 
	C479.179047,313.674103 479.468719,313.963959 486.790863,313.976135 
	C491.214996,313.983521 495.639099,313.981049 500.531616,313.991516 
	C501.000000,315.066681 501.000000,316.133331 501.000000,317.600037 
	C496.027374,317.987946 491.054718,317.970795 486.082092,317.964905 
	C475.754700,317.952667 475.084045,317.292633 475.376953,306.508301 
	C476.800598,306.049347 477.856354,306.107849 478.912140,306.166351 
z"/>
<path fill="#020202" opacity="1.000000" stroke="none" 
	d="
M479.375275,306.068512 
	C477.856354,306.107849 476.800598,306.049347 475.356720,306.073547 
	C471.164368,306.156189 467.360077,306.156189 462.894775,306.156189 
	C462.894775,292.625214 462.894775,279.297729 462.930328,265.098267 
	C462.651154,261.479523 462.336426,258.732758 462.118591,255.591537 
	C461.462250,252.668411 461.020386,249.990860 459.896210,247.639526 
	C456.793518,241.149826 450.431946,240.618210 446.888580,246.893814 
	C444.768036,250.649490 443.282806,255.215195 443.055664,259.498657 
	C442.511292,269.764862 442.878784,280.079468 442.878387,290.374512 
	C442.878204,295.462433 442.878357,300.550354 442.878357,306.210144 
	C437.786255,306.210144 433.339325,306.210144 428.483215,306.159180 
	C426.705902,306.120026 425.337769,306.131805 423.969635,306.143555 
	C420.212372,306.143585 416.455109,306.143585 412.254639,306.143585 
	C412.254639,291.986908 412.254639,278.447235 412.273987,264.024780 
	C412.143280,261.112610 411.993164,259.083221 411.914459,256.706421 
	C411.659546,255.238617 411.333252,254.118164 411.041931,252.620789 
	C410.616394,250.828400 410.544128,249.038071 409.614624,248.075409 
	C407.668762,246.060150 405.351440,243.223770 403.036682,243.076065 
	C400.719604,242.928238 397.791656,245.244431 395.930634,247.229675 
	C394.341797,248.924652 393.257385,251.625610 393.046051,253.979950 
	C392.380829,261.391907 392.059052,268.847137 391.925690,276.291351 
	C391.751007,286.043396 391.882843,295.800873 391.882843,306.155548 
	C387.189789,306.155548 383.075714,306.155548 378.587158,306.092834 
	C377.459503,306.065399 376.706390,306.100708 375.621582,306.081665 
	C374.848969,306.078094 374.408020,306.128937 373.967072,306.179779 
	C371.939240,306.126465 369.911438,306.073151 367.087128,306.006256 
	C365.543976,306.039642 364.797302,306.086578 363.596741,306.037933 
	C362.565125,304.295929 361.492462,302.651978 361.484314,301.002777 
	C361.373444,278.447144 361.420929,255.890762 361.398621,233.334610 
	C361.394897,229.553436 361.245300,225.772385 361.163116,221.991287 
	C361.302521,219.706894 361.441925,217.422501 361.595093,214.912613 
	C371.610626,214.912613 381.369537,214.912613 391.632629,214.912613 
	C391.779785,217.767380 391.929871,220.679413 392.148163,224.914169 
	C405.090485,211.116272 418.672424,208.297409 433.626587,221.312866 
	C436.207214,225.395538 438.462555,228.937637 440.703125,232.456543 
	C442.045563,229.745316 443.484283,226.839630 444.923004,223.933929 
	C455.468536,207.654663 477.621948,211.415833 485.694336,223.070496 
	C491.761536,232.816574 493.309326,243.313538 493.200928,254.280960 
	C493.048218,269.734253 493.163544,285.190155 493.164246,300.644958 
	C493.164307,302.265045 493.164276,303.885132 493.164276,305.970673 
	C488.390198,305.970673 484.114288,305.970673 479.375275,306.068512 
z"/>
<path fill="#010101" opacity="1.000000" stroke="none" 
	d="
M287.247925,306.481934 
	C271.660706,300.340454 268.276825,286.910126 267.172882,272.342255 
	C266.685730,265.913208 267.020538,259.421814 267.015381,252.075836 
	C266.989960,249.483078 266.931305,247.773224 266.967255,245.664703 
	C266.994873,244.178452 266.927887,243.090836 266.918396,241.538498 
	C266.961884,235.698868 266.947845,230.323975 266.933807,224.949081 
	C266.933807,221.666458 266.933807,218.383850 266.933807,214.893433 
	C277.081085,214.893433 286.790070,214.893433 296.980072,214.893433 
	C297.103851,216.211151 297.235107,217.608215 297.330872,219.823730 
	C297.379456,221.685242 297.463501,222.728302 297.394104,224.232483 
	C297.265686,235.288376 296.979309,245.896805 297.443298,256.472321 
	C297.686127,262.007233 298.558044,267.727661 300.394226,272.923096 
	C302.469574,278.795258 307.322571,279.495972 312.353943,275.322113 
	C314.139343,270.757874 315.634491,266.417084 317.129639,262.076324 
	C317.414490,260.551483 317.939819,259.027710 317.946686,257.501587 
	C318.010254,243.424316 317.984192,229.346619 317.984192,214.971069 
	C327.945984,214.971069 337.643646,214.971069 348.054504,214.971069 
	C348.054504,216.840805 348.054504,218.914749 348.093903,221.855545 
	C348.291138,224.101059 348.448944,225.479736 348.454773,227.315598 
	C348.302795,253.766556 348.302795,279.760315 348.302795,306.176544 
	C343.559052,306.176544 339.754364,306.176544 335.499268,306.113708 
	C331.716278,306.104523 328.383667,306.158142 324.605377,306.121643 
	C322.228851,306.031525 320.298004,306.031525 317.861084,306.031525 
	C317.861084,301.603668 317.861084,297.770233 317.861084,293.936798 
	C312.984924,302.246582 305.968658,306.610718 296.533508,307.821106 
	C294.774658,307.874207 293.355286,308.027924 291.572937,308.123718 
	C289.889313,307.537872 288.568634,307.009888 287.247925,306.481934 
z"/>
<path fill="#010101" opacity="1.000000" stroke="none" 
	d="
M100.271973,228.031265 
	C116.366234,209.977722 142.274139,207.679703 160.722549,223.227081 
	C164.253220,229.139389 168.512726,234.174744 170.399002,239.981064 
	C174.757599,253.397614 174.552933,267.256012 170.516998,280.797882 
	C166.317230,294.889526 156.972687,304.043732 142.310745,306.602173 
	C136.330856,307.645660 130.059921,307.021271 123.560471,307.066010 
	C120.799690,306.317535 118.399841,305.658783 115.999992,305.000031 
	C103.270966,299.204926 96.318665,288.991699 93.375412,274.886719 
	C92.982956,272.854736 92.732239,271.539825 92.591965,269.807495 
	C92.788712,261.923462 92.875015,254.456818 93.087769,246.690216 
	C93.378365,245.555161 93.542519,244.720062 93.824821,243.529160 
	C96.052643,238.125992 98.162308,233.078629 100.271973,228.031265 
M142.877548,251.403702 
	C142.161331,249.735016 141.637344,247.948029 140.695602,246.418167 
	C136.647217,239.841339 127.943634,239.863541 124.626175,246.809189 
	C120.426697,255.601501 120.552521,264.847870 124.543983,273.723602 
	C126.714294,278.549683 131.012405,279.790253 136.699844,277.850647 
	C140.717026,275.144440 143.095886,271.409485 143.156265,266.540741 
	C143.215805,261.738281 142.917511,256.931335 142.877548,251.403702 
z"/>
<path fill="#000000" opacity="1.000000" stroke="none" 
	d="
M21.970558,306.158752 
	C18.161013,306.158752 14.351467,306.158752 10.247208,306.158752 
	C10.247208,267.936737 10.247208,230.072983 10.247208,192.017029 
	C33.656811,192.017029 56.928886,192.017029 80.706810,192.017029 
	C80.796471,193.296692 80.894356,194.693802 80.986801,196.924927 
	C81.032211,198.811157 81.083061,199.863388 81.026283,201.378677 
	C80.918663,207.582336 80.918663,213.322922 80.918663,219.589844 
	C66.925842,219.589844 53.687023,219.589844 40.477966,219.589844 
	C40.477966,225.080048 40.477966,230.013641 40.477966,235.069366 
	C45.497364,235.069366 50.248329,235.069366 55.463818,235.138947 
	C64.190132,235.208542 72.451927,235.208542 80.761253,235.208542 
	C80.911255,238.638229 81.027199,241.289108 81.045578,244.310852 
	C81.014038,245.443787 81.080055,246.205826 81.072685,247.432251 
	C80.999306,252.514664 80.999306,257.132690 80.999306,262.267181 
	C67.226624,262.267181 53.992508,262.267181 40.244438,262.267181 
	C40.244438,277.018005 40.244438,291.249146 40.244438,306.174835 
	C35.120449,306.174835 30.512505,306.174835 25.511349,306.128906 
	C24.068945,306.108246 23.019751,306.133484 21.970558,306.158752 
z"/>
<path fill="#010101" opacity="1.000000" stroke="none" 
	d="
M196.963120,306.153870 
	C193.695114,306.102661 190.415482,306.187469 187.166931,305.909149 
	C186.303757,305.835205 185.536118,304.646545 184.777313,303.080536 
	C184.738953,298.521912 184.647919,294.852386 184.703690,290.723694 
	C184.784409,273.770264 184.718323,257.276031 184.652252,240.781784 
	C184.652237,232.305450 184.652237,223.829102 184.652237,215.012604 
	C194.828583,215.012604 204.696487,215.012604 215.056915,215.012604 
	C215.056915,217.899857 215.056915,220.785706 215.056915,225.161209 
	C228.228729,210.974915 241.362808,208.093781 255.546555,222.399628 
	C259.539398,226.878662 259.643158,230.176788 255.178970,233.994675 
	C250.702774,237.822861 246.980072,242.532074 242.626938,246.990082 
	C241.283752,248.074448 240.240768,249.023880 239.122040,250.042236 
	C237.985199,248.840302 237.242966,247.943039 236.388565,247.169693 
	C227.880386,239.468674 221.380295,241.178421 217.972885,252.009399 
	C217.575439,253.272766 217.055176,254.560913 216.993347,255.856750 
	C216.298691,270.415100 215.671921,284.976746 215.057693,299.538818 
	C214.970078,301.615967 215.045578,303.700012 215.045578,306.175385 
	C209.842377,306.175385 205.378372,306.175385 200.519775,306.124756 
	C199.071167,306.100739 198.017151,306.127289 196.963120,306.153870 
z"/>
<path fill="#878787" opacity="1.000000" stroke="none" 
	d="
M184.319016,240.751709 
	C184.718323,257.276031 184.784409,273.770264 184.414978,290.846313 
	C181.884949,294.920837 180.123627,298.673676 177.636368,301.859741 
	C168.518097,313.539825 155.762070,316.179565 141.993744,314.827515 
	C135.412689,314.181274 128.584183,312.894867 123.921410,307.155701 
	C130.059921,307.021271 136.330856,307.645660 142.310745,306.602173 
	C156.972687,304.043732 166.317230,294.889526 170.516998,280.797882 
	C174.552933,267.256012 174.757599,253.397614 170.399002,239.981064 
	C168.512726,234.174744 164.253220,229.139389 160.997192,223.421509 
	C169.993317,225.311569 176.618530,230.861328 181.819962,238.382584 
	C182.418274,239.247757 183.257996,239.945984 184.319016,240.751709 
z"/>
<path fill="#EAEAEA" opacity="1.000000" stroke="none" 
	d="
M81.133904,200.915604 
	C81.083061,199.863388 81.032211,198.811157 81.061707,197.371918 
	C83.969223,196.993256 86.796402,197.001770 89.623589,197.009918 
	C97.472122,197.032547 99.904449,199.491592 99.981194,207.511566 
	C100.043236,213.995712 100.087402,220.480026 100.205734,227.497772 
	C98.162308,233.078629 96.052643,238.125992 93.381851,243.542114 
	C88.928200,243.920578 85.035667,243.930283 81.143143,243.939987 
	C81.027199,241.289108 80.911255,238.638229 80.761253,235.208542 
	C72.451927,235.208542 64.190132,235.208542 55.461403,234.741791 
	C55.048683,229.575943 57.728851,227.946121 62.082497,227.978516 
	C71.058769,228.045334 80.036240,228.034241 89.012619,227.970749 
	C94.111000,227.934708 95.809982,226.184586 95.879936,221.044617 
	C95.938759,216.723267 95.935585,212.399902 95.880638,208.078430 
	C95.812263,202.700851 94.153664,201.133881 88.609978,201.043625 
	C86.117920,201.003036 83.625923,200.958405 81.133904,200.915604 
z"/>
<path fill="#D1D1D1" opacity="1.000000" stroke="none" 
	d="
M196.986252,306.582520 
	C198.017151,306.127289 199.071167,306.100739 200.534973,306.536499 
	C200.132111,312.188690 203.123138,313.848358 207.563416,313.944061 
	C212.387589,314.048004 217.216125,314.020081 222.041794,313.964966 
	C227.171799,313.906372 228.937256,312.184875 228.970001,307.083923 
	C229.030853,297.597961 228.481339,288.074127 229.166351,278.637238 
	C229.687088,271.463470 231.495468,264.345093 233.168579,257.306152 
	C234.329788,252.420837 237.930847,250.066254 242.937302,251.075775 
	C245.610794,251.614883 248.345459,252.729675 250.600006,254.253983 
	C253.695953,256.347168 255.802872,256.046844 258.344635,253.361191 
	C260.902283,250.658813 264.007416,248.474609 266.872681,246.063354 
	C266.931305,247.773224 266.989960,249.483078 266.960693,251.611954 
	C264.582520,253.829376 261.854889,255.280930 260.094788,257.499908 
	C256.654694,261.836884 253.240860,261.225464 249.316971,258.539307 
	C241.165314,252.958969 236.101242,254.845535 235.143829,264.947601 
	C233.785889,279.275757 233.502777,293.712524 232.986160,308.110962 
	C232.710266,315.799957 230.860092,317.920319 223.309738,317.936615 
	C218.151352,317.947754 212.992920,317.942963 207.834518,317.939514 
	C198.251480,317.933136 197.097778,316.766602 196.986252,306.582520 
z"/>
<path fill="#DADADA" opacity="1.000000" stroke="none" 
	d="
M21.985342,306.587341 
	C23.019751,306.133484 24.068945,306.108246 25.526554,306.539856 
	C26.154341,313.495300 26.671844,313.995728 33.267937,314.022461 
	C36.261848,314.034576 39.256104,314.050964 42.249756,314.020966 
	C55.679111,313.886475 53.898869,315.685333 54.105789,301.945770 
	C54.235661,293.322510 54.492001,284.700348 54.781792,276.080719 
	C54.894016,272.742737 56.652046,270.922882 60.140755,270.863556 
	C70.921516,270.680359 81.701332,270.441925 92.481522,270.224945 
	C92.732239,271.539825 92.982956,272.854736 93.179749,274.568665 
	C83.648407,274.960175 74.166786,275.115356 64.695450,274.871429 
	C60.429878,274.761566 58.705223,276.061096 58.864918,280.533203 
	C59.149548,288.504120 59.035069,296.494049 58.897636,304.472748 
	C58.846725,307.428589 59.028915,310.803955 57.691452,313.198608 
	C56.489464,315.350586 53.438030,317.574951 51.050503,317.755188 
	C43.445450,318.329315 35.769405,317.933441 28.121157,317.977295 
	C24.051180,318.000641 22.666603,315.336273 22.096243,311.996033 
	C21.819914,310.377716 22.017244,308.678528 21.985342,306.587341 
z"/>
<path fill="#A4A4A4" opacity="1.000000" stroke="none" 
	d="
M348.606781,226.858398 
	C348.448944,225.479736 348.291138,224.101059 348.177673,222.305634 
	C352.223969,221.968735 356.225891,222.048599 360.695496,222.059875 
	C361.245300,225.772385 361.394897,229.553436 361.398621,233.334610 
	C361.420929,255.890762 361.373444,278.447144 361.484314,301.002777 
	C361.492462,302.651978 362.565125,304.295929 363.546997,306.425568 
	C362.828094,314.439362 362.203888,315.004028 354.910492,315.012268 
	C349.577515,315.018311 344.243164,314.936401 338.912048,315.034424 
	C335.914459,315.089539 333.746643,314.291260 332.880859,311.089539 
	C331.967316,307.711365 330.572327,307.667450 327.555115,309.638214 
	C323.207855,312.477722 318.416260,314.989960 313.463745,316.464661 
	C306.530457,318.529205 295.585754,313.838379 291.935913,308.181641 
	C293.355286,308.027924 294.774658,307.874207 296.663422,308.094360 
	C302.737854,313.923309 314.092072,315.075104 320.848511,310.647461 
	C322.506287,309.560974 323.663635,307.710815 325.051056,306.211761 
	C328.383667,306.158142 331.716278,306.104523 335.511017,306.525665 
	C335.500610,311.060059 337.532257,312.255096 341.300568,312.054108 
	C345.455109,311.832489 349.651764,311.740417 353.791382,312.073181 
	C358.562347,312.456635 360.166718,310.779999 360.117432,305.887634 
	C359.892395,283.558258 360.018829,261.225342 360.018921,238.893692 
	C360.018951,227.282272 360.018951,227.282272 348.606781,226.858398 
z"/>
<path fill="#D6D6D6" opacity="1.000000" stroke="none" 
	d="
M462.021698,255.985962 
	C462.336426,258.732758 462.651154,261.479523 462.868774,264.636169 
	C462.166748,266.549469 461.052826,268.047455 461.036652,269.557190 
	C460.895874,282.721100 460.966339,295.887146 460.942657,309.052490 
	C460.930969,315.557709 458.490723,317.934296 451.865570,317.957825 
	C446.366150,317.977356 440.866638,317.967072 435.367157,317.962952 
	C426.187714,317.956085 424.147522,315.977020 423.999542,306.561279 
	C425.337769,306.131805 426.705902,306.120026 428.471558,306.569458 
	C429.065552,313.338104 429.667419,313.959290 435.713165,314.002594 
	C438.532257,314.022797 441.351654,314.006805 444.170898,314.006805 
	C456.766205,314.006836 456.960358,313.811371 456.965057,301.348022 
	C456.969330,290.071045 456.856293,278.791840 457.054230,267.518158 
	C457.131134,263.138428 457.558746,258.614197 462.021698,255.985962 
z"/>
<path fill="#878787" opacity="1.000000" stroke="none" 
	d="
M242.927124,246.855164 
	C246.980072,242.532074 250.702774,237.822861 255.178970,233.994675 
	C259.643158,230.176788 259.539398,226.878662 255.800903,222.617981 
	C259.254822,223.279068 262.738983,224.292084 266.578491,225.127075 
	C266.947845,230.323975 266.961884,235.698868 266.583557,241.577560 
	C265.619904,242.403351 264.858765,242.586258 264.505829,243.068146 
	C259.030365,250.544235 252.724609,254.290207 244.027344,247.828583 
	C243.635712,247.537628 243.292755,247.181137 242.927124,246.855164 
z"/>
<path fill="#D1D1D1" opacity="1.000000" stroke="none" 
	d="
M123.560471,307.066010 
	C128.584183,312.894867 135.412689,314.181274 141.993744,314.827515 
	C155.762070,316.179565 168.518097,313.539825 177.636368,301.859741 
	C180.123627,298.673676 181.884949,294.920837 184.268158,291.305511 
	C184.647919,294.852386 184.738953,298.521912 184.700912,302.639221 
	C182.571304,304.357178 180.043121,305.209106 178.653015,306.963074 
	C166.657593,322.097961 136.118164,322.573578 121.811790,311.771545 
	C119.618515,310.115509 117.973267,307.733643 116.037277,305.343750 
	C118.399841,305.658783 120.799690,306.317535 123.560471,307.066010 
z"/>
<path fill="#E1E1E1" opacity="1.000000" stroke="none" 
	d="
M291.572937,308.123749 
	C295.585754,313.838379 306.530457,318.529205 313.463745,316.464661 
	C318.416260,314.989960 323.207855,312.477722 327.555115,309.638214 
	C330.572327,307.667450 331.967316,307.711365 332.880859,311.089539 
	C333.746643,314.291260 335.914459,315.089539 338.912048,315.034424 
	C344.243164,314.936401 349.577515,315.018311 354.910492,315.012268 
	C362.203888,315.004028 362.828094,314.439362 364.000854,306.521179 
	C364.797302,306.086578 365.543976,306.039642 366.656738,306.072510 
	C366.995514,307.817200 367.238922,309.541718 366.887878,311.135284 
	C365.993896,315.193848 364.000366,318.114075 359.174500,318.023529 
	C352.515686,317.898621 345.835815,318.272400 339.199341,317.868317 
	C336.312744,317.692505 333.561523,315.875977 330.652100,315.265045 
	C329.027557,314.923950 326.911255,315.003815 325.517120,315.786102 
	C312.774353,322.936737 298.235840,320.825226 288.764801,310.181000 
	C288.034363,309.360107 287.663055,308.219635 287.186401,306.854797 
	C288.568634,307.009888 289.889313,307.537872 291.572937,308.123749 
z"/>
<path fill="#DADADA" opacity="1.000000" stroke="none" 
	d="
M373.969727,306.614868 
	C374.408020,306.128937 374.848969,306.078094 375.663116,306.486450 
	C376.260101,313.720428 377.545044,314.963440 384.401184,314.981995 
	C389.393402,314.995514 394.385864,315.009796 399.377930,314.977325 
	C405.364594,314.938416 406.937744,313.330139 406.951019,307.184448 
	C406.978333,294.537445 406.760498,281.884949 407.088226,269.246246 
	C407.202301,264.846527 407.137085,259.885559 411.843079,257.053802 
	C411.993164,259.083221 412.143280,261.112610 412.177551,263.563751 
	C411.367279,265.583374 410.097443,267.171814 410.071075,268.780670 
	C409.891418,279.740875 410.056091,290.706360 409.925659,301.667938 
	C409.880676,305.452301 409.636322,309.302032 408.826569,312.977264 
	C408.488403,314.511871 406.511597,316.731812 405.155853,316.824432 
	C396.929718,317.386475 388.619751,318.055359 380.433350,317.432404 
	C374.175537,316.956268 374.009277,315.754425 373.969727,306.614868 
z"/>
<path fill="#DADADA" opacity="1.000000" stroke="none" 
	d="
M297.547546,223.771362 
	C297.463501,222.728302 297.379456,221.685242 297.440063,220.276260 
	C300.416138,219.958084 303.247803,219.995087 306.078949,220.055695 
	C313.401672,220.212494 315.885712,222.690781 315.940918,230.133331 
	C316.006439,238.965042 315.931396,247.797714 315.979858,256.629639 
	C315.988800,258.265259 316.294617,259.899231 316.796509,261.805145 
	C315.634491,266.417084 314.139343,270.757874 312.351685,274.815857 
	C312.008423,262.124176 311.937469,249.715256 311.912476,237.306244 
	C311.886963,224.657730 311.906586,224.660706 299.509766,224.054855 
	C298.852661,224.022736 298.201477,223.868652 297.547546,223.771362 
z"/>
<path fill="#898989" opacity="1.000000" stroke="none" 
	d="
M444.548187,223.982422 
	C443.484283,226.839630 442.045563,229.745316 440.703125,232.456543 
	C438.462555,228.937637 436.207214,225.395538 433.896362,221.512497 
	C437.285034,222.124695 440.729187,223.077820 444.548187,223.982422 
z"/>
<path fill="#898989" opacity="1.000000" stroke="none" 
	d="
M462.118591,255.591537 
	C457.558746,258.614197 457.131134,263.138428 457.054230,267.518158 
	C456.856293,278.791840 456.969330,290.071045 456.965057,301.348022 
	C456.960358,313.811371 456.766205,314.006836 444.170898,314.006805 
	C441.351654,314.006805 438.532257,314.022797 435.713165,314.002594 
	C429.667419,313.959290 429.065552,313.338104 428.880737,306.620422 
	C433.339325,306.210144 437.786255,306.210144 442.878357,306.210144 
	C442.878357,300.550354 442.878204,295.462433 442.878387,290.374512 
	C442.878784,280.079468 442.511292,269.764862 443.055664,259.498657 
	C443.282806,255.215195 444.768036,250.649490 446.888580,246.893814 
	C450.431946,240.618210 456.793518,241.149826 459.896210,247.639526 
	C461.020386,249.990860 461.462250,252.668411 462.118591,255.591537 
z"/>
<path fill="#848484" opacity="1.000000" stroke="none" 
	d="
M378.961639,306.155548 
	C383.075714,306.155548 387.189789,306.155548 391.882843,306.155548 
	C391.882843,295.800873 391.751007,286.043396 391.925690,276.291351 
	C392.059052,268.847137 392.380829,261.391907 393.046051,253.979950 
	C393.257385,251.625610 394.341797,248.924652 395.930634,247.229675 
	C397.791656,245.244431 400.719604,242.928238 403.036682,243.076065 
	C405.351440,243.223770 407.668762,246.060150 409.614624,248.075409 
	C410.544128,249.038071 410.616394,250.828400 410.686218,252.657990 
	C405.381897,257.107239 404.250946,262.852905 404.104431,268.602753 
	C403.786835,281.066559 403.924835,293.544617 404.040283,306.015350 
	C404.079041,310.202087 402.489105,312.210968 398.171631,312.041901 
	C394.352814,311.892365 390.488098,311.684204 386.707733,312.093628 
	C381.966095,312.607208 379.441742,310.880829 378.961639,306.155548 
z"/>
<path fill="#A4A4A4" opacity="1.000000" stroke="none" 
	d="
M378.587158,306.092834 
	C379.441742,310.880829 381.966095,312.607208 386.707733,312.093628 
	C390.488098,311.684204 394.352814,311.892365 398.171631,312.041901 
	C402.489105,312.210968 404.079041,310.202087 404.040283,306.015350 
	C403.924835,293.544617 403.786835,281.066559 404.104431,268.602753 
	C404.250946,262.852905 405.381897,257.107239 410.651184,253.034943 
	C411.333252,254.118164 411.659546,255.238617 411.914459,256.706421 
	C407.137085,259.885559 407.202301,264.846527 407.088226,269.246246 
	C406.760498,281.884949 406.978333,294.537445 406.951019,307.184448 
	C406.937744,313.330139 405.364594,314.938416 399.377930,314.977325 
	C394.385864,315.009796 389.393402,314.995514 384.401184,314.981995 
	C377.545044,314.963440 376.260101,313.720428 375.994781,306.540833 
	C376.706390,306.100708 377.459503,306.065399 378.587158,306.092834 
z"/>
<path fill="#898989" opacity="1.000000" stroke="none" 
	d="
M242.626953,246.990097 
	C243.292755,247.181137 243.635712,247.537628 244.027344,247.828583 
	C252.724609,254.290207 259.030365,250.544235 264.505829,243.068146 
	C264.858765,242.586258 265.619904,242.403351 266.526031,242.042297 
	C266.927887,243.090836 266.994873,244.178452 266.967285,245.664703 
	C264.007416,248.474609 260.902283,250.658813 258.344635,253.361191 
	C255.802872,256.046844 253.695953,256.347168 250.600006,254.253983 
	C248.345459,252.729675 245.610794,251.614883 242.937302,251.075775 
	C237.930847,250.066254 234.329788,252.420837 233.168579,257.306152 
	C231.495468,264.345093 229.687088,271.463470 229.166351,278.637238 
	C228.481339,288.074127 229.030853,297.597961 228.970001,307.083923 
	C228.937256,312.184875 227.171799,313.906372 222.041794,313.964966 
	C217.216125,314.020081 212.387589,314.048004 207.563416,313.944061 
	C203.123138,313.848358 200.132111,312.188690 200.929535,306.587128 
	C205.378372,306.175385 209.842377,306.175385 215.045578,306.175385 
	C215.045578,303.700012 214.970078,301.615967 215.057693,299.538818 
	C215.671921,284.976746 216.298691,270.415100 216.993347,255.856750 
	C217.055176,254.560913 217.575439,253.272766 217.972885,252.009399 
	C221.380295,241.178421 227.880386,239.468674 236.388565,247.169693 
	C237.242966,247.943039 237.985199,248.840302 239.122040,250.042236 
	C240.240768,249.023880 241.283752,248.074448 242.626953,246.990097 
z"/>
<path fill="#818181" opacity="1.000000" stroke="none" 
	d="
M348.454773,227.315598 
	C360.018951,227.282272 360.018951,227.282272 360.018921,238.893692 
	C360.018829,261.225342 359.892395,283.558258 360.117432,305.887634 
	C360.166718,310.779999 358.562347,312.456635 353.791382,312.073181 
	C349.651764,311.740417 345.455109,311.832489 341.300568,312.054108 
	C337.532257,312.255096 335.500610,311.060059 335.961426,306.588501 
	C339.754364,306.176544 343.559052,306.176544 348.302795,306.176544 
	C348.302795,279.760315 348.302795,253.766556 348.454773,227.315598 
z"/>
<path fill="#888888" opacity="1.000000" stroke="none" 
	d="
M297.394073,224.232498 
	C298.201477,223.868652 298.852661,224.022736 299.509766,224.054855 
	C311.906586,224.660706 311.886963,224.657730 311.912476,237.306244 
	C311.937469,249.715256 312.008423,262.124176 312.061462,275.039368 
	C307.322571,279.495972 302.469574,278.795258 300.394226,272.923096 
	C298.558044,267.727661 297.686127,262.007233 297.443298,256.472321 
	C296.979309,245.896805 297.265686,235.288376 297.394073,224.232498 
z"/>
<path fill="#848484" opacity="1.000000" stroke="none" 
	d="
M324.605377,306.121643 
	C323.663635,307.710815 322.506287,309.560974 320.848511,310.647461 
	C314.092072,315.075104 302.737854,313.923309 297.002869,308.195007 
	C305.968658,306.610718 312.984924,302.246582 317.861084,293.936798 
	C317.861084,297.770233 317.861084,301.603668 317.861084,306.031525 
	C320.298004,306.031525 322.228851,306.031525 324.605377,306.121643 
z"/>
<path fill="#888888" opacity="1.000000" stroke="none" 
	d="
M92.591965,269.807495 
	C81.701332,270.441925 70.921516,270.680359 60.140755,270.863556 
	C56.652046,270.922882 54.894016,272.742737 54.781792,276.080719 
	C54.492001,284.700348 54.235661,293.322510 54.105789,301.945770 
	C53.898869,315.685333 55.679111,313.886475 42.249756,314.020966 
	C39.256104,314.050964 36.261848,314.034576 33.267937,314.022461 
	C26.671844,313.995728 26.154341,313.495300 25.919765,306.585785 
	C30.512505,306.174835 35.120449,306.174835 40.244438,306.174835 
	C40.244438,291.249146 40.244438,277.018005 40.244438,262.267181 
	C53.992508,262.267181 67.226624,262.267181 80.999306,262.267181 
	C80.999306,257.132690 80.999306,252.514664 81.522919,247.443741 
	C85.684792,246.990616 89.323051,246.990402 92.961319,246.990189 
	C92.875015,254.456818 92.788712,261.923462 92.591965,269.807495 
z"/>
<path fill="#878787" opacity="1.000000" stroke="none" 
	d="
M135.997208,277.943329 
	C131.012405,279.790253 126.714294,278.549683 124.543983,273.723602 
	C120.552521,264.847870 120.426697,255.601501 124.626175,246.809189 
	C127.943634,239.863541 136.647217,239.841339 140.695602,246.418167 
	C141.637344,247.948029 142.161331,249.735016 142.499603,251.821350 
	C140.441223,254.547943 137.700974,256.683899 137.290344,259.200073 
	C136.286011,265.354279 136.358276,271.684143 135.997208,277.943329 
z"/>
<path fill="#E1E1E1" opacity="1.000000" stroke="none" 
	d="
M136.348526,277.896973 
	C136.358276,271.684143 136.286011,265.354279 137.290344,259.200073 
	C137.700974,256.683899 140.441223,254.547943 142.448929,252.182678 
	C142.917511,256.931335 143.215805,261.738281 143.156265,266.540741 
	C143.095886,271.409485 140.717026,275.144440 136.348526,277.896973 
z"/>
<path fill="#A4A4A4" opacity="1.000000" stroke="none" 
	d="
M93.087769,246.690216 
	C89.323051,246.990402 85.684792,246.990616 81.596298,246.979370 
	C81.080055,246.205826 81.014038,245.443787 81.045578,244.310852 
	C85.035667,243.930283 88.928200,243.920578 93.263702,243.897919 
	C93.542519,244.720062 93.378365,245.555161 93.087769,246.690216 
z"/>
<path fill="#898989" opacity="1.000000" stroke="none" 
	d="
M81.026283,201.378677 
	C83.625923,200.958405 86.117920,201.003036 88.609978,201.043625 
	C94.153664,201.133881 95.812263,202.700851 95.880638,208.078430 
	C95.935585,212.399902 95.938759,216.723267 95.879936,221.044617 
	C95.809982,226.184586 94.111000,227.934708 89.012619,227.970749 
	C80.036240,228.034241 71.058769,228.045334 62.082497,227.978516 
	C57.728851,227.946121 55.048683,229.575943 54.996883,234.672211 
	C50.248329,235.069366 45.497364,235.069366 40.477966,235.069366 
	C40.477966,230.013641 40.477966,225.080048 40.477966,219.589844 
	C53.687023,219.589844 66.925842,219.589844 80.918663,219.589844 
	C80.918663,213.322922 80.918663,207.582336 81.026283,201.378677 
z"/>
</svg>