<svg version="1.1" id="Layer_1" xmlns="http://www.w3.org/2000/svg" xmlns:xlink="http://www.w3.org/1999/xlink" x="0px" y="0px"
	 width="100%" viewBox="0 0 268 69" enable-background="new 0 0 268 69" xml:space="preserve">
<path fill="#202020" opacity="1.000000" stroke="none" 
	d="
M177.000000,70.000000 
	C119.333351,70.000000 62.166615,69.960983 5.000293,70.097069 
	C1.575437,70.105225 0.864200,69.429550 0.898207,65.999054 
	C1.103058,45.334427 1.050662,24.666458 0.934014,4.000459 
	C0.919895,1.499136 1.500520,0.935070 3.999966,0.937222 
	C91.333206,1.012421 178.666534,1.012408 265.999756,0.937272 
	C268.498535,0.935122 269.079803,1.498245 269.065948,4.000180 
	C268.950012,24.999533 268.950134,46.000076 269.065918,66.999428 
	C269.079712,69.500389 268.501007,70.073486 266.000000,70.064926 
	C236.500259,69.963913 207.000076,70.000000 177.000000,70.000000 
z"/>
<path fill="#F8F8F8" opacity="1.000000" stroke="none" 
	d="
M220.337250,42.792423 
	C220.642502,36.893055 221.045151,31.462641 220.296539,25.181335 
	C216.248505,30.657057 215.115723,36.517567 213.011139,41.938427 
	C212.471130,43.329353 212.054596,44.768051 211.520432,46.161461 
	C211.180542,47.048088 211.009354,48.176941 209.638901,48.069336 
	C208.325851,47.966240 208.171982,46.973854 207.997314,45.958527 
	C206.908173,39.627724 203.889160,34.081799 200.440598,28.593708 
	C199.762177,37.739151 196.287857,47.286701 206.382034,55.701286 
	C198.531052,55.701286 192.313431,55.701286 187.106155,55.701286 
	C190.914581,41.377731 190.590439,26.409370 188.883316,11.292322 
	C200.354568,10.576131 200.328018,10.587830 205.156708,21.546188 
	C206.745438,25.151657 208.510651,28.679361 210.383362,32.640736 
	C212.843704,27.353672 214.402924,22.464869 215.090057,17.336815 
	C215.459152,14.582343 216.563492,13.432746 219.591537,13.581615 
	C223.559372,13.776689 227.559555,13.263850 231.548096,13.118268 
	C232.773972,13.073524 234.994141,12.993629 233.822968,14.906210 
	C230.660095,20.071308 232.399994,25.637817 231.922775,30.993120 
	C231.584656,34.787697 232.201294,38.666050 231.880295,42.463776 
	C231.468933,47.330544 234.231567,50.434826 237.997375,53.831112 
	C230.410034,54.183350 223.666885,54.496399 216.267075,54.839928 
	C218.431274,51.019100 220.759644,47.552525 220.337250,42.792423 
z"/>
<path fill="#F6F6F6" opacity="1.000000" stroke="none" 
	d="
M115.845779,55.853966 
	C112.440773,55.853668 109.492722,55.853668 107.247490,55.853668 
	C112.050064,40.790085 111.810425,26.018967 107.708038,10.984253 
	C113.649391,12.434904 120.492661,10.427172 127.449089,9.331959 
	C135.031998,8.138113 143.040863,12.472709 145.081909,18.477245 
	C147.322250,25.068089 144.317612,30.928503 136.412247,35.401306 
	C135.862411,35.712395 135.336105,36.065086 134.339706,36.683311 
	C139.687012,38.856808 142.704758,42.339237 143.195557,47.986668 
	C143.420547,50.575638 145.903778,52.328541 147.688217,54.761833 
	C141.566345,54.761833 135.837433,54.761833 129.598816,54.761833 
	C133.118759,50.625397 134.340820,46.266811 131.732483,41.252705 
	C128.958084,35.919342 124.662071,39.496330 121.149643,39.396236 
	C117.675743,39.297237 119.166969,42.566322 119.106979,44.419693 
	C118.976074,48.464104 120.504196,52.145359 122.644928,55.854263 
	C120.250313,55.854263 118.276527,55.854263 115.845779,55.853966 
z"/>
<path fill="#F8F8F8" opacity="1.000000" stroke="none" 
	d="
M70.841896,49.183914 
	C56.659637,37.317780 64.289345,12.607209 78.640221,9.615361 
	C86.975082,7.877723 94.642151,9.026115 100.585861,15.533356 
	C106.440659,21.943247 107.651688,29.599983 105.068398,37.822254 
	C104.478821,39.698811 103.624817,41.535252 102.626160,43.233532 
	C94.611603,56.862961 83.667213,58.987370 70.841896,49.183914 
z"/>
<path fill="#F7F7F7" opacity="1.000000" stroke="none" 
	d="
M170.299866,55.156506 
	C169.401688,55.236328 168.903381,55.310745 168.405472,55.308212 
	C155.865463,55.244370 152.462357,52.541306 150.394379,40.227341 
	C149.263596,33.493893 148.978973,26.654583 149.387619,19.810349 
	C149.516281,17.655220 149.767380,15.458823 148.072052,13.195922 
	C152.694382,13.195922 157.052170,13.195922 162.143478,13.195922 
	C158.406265,15.651411 158.230103,19.086245 158.185165,22.573364 
	C158.099121,29.248709 158.296158,35.914703 160.149689,42.373631 
	C161.023926,45.420029 162.220963,48.715206 166.108276,48.843632 
	C169.873596,48.968029 171.914154,46.095455 172.706772,43.002472 
	C175.162720,33.418896 176.703781,23.776190 170.145569,14.408640 
	C175.586365,13.755581 180.717468,15.179876 186.659790,15.034497 
	C184.192551,17.866282 184.214676,20.882303 184.154434,23.893192 
	C184.017853,30.720047 183.467651,37.484863 182.249146,44.237740 
	C181.038910,50.944798 177.456436,54.573441 170.299866,55.156506 
z"/>
<path fill="#F6F6F6" opacity="1.000000" stroke="none" 
	d="
M45.637405,17.522049 
	C43.474228,19.329033 42.296543,21.353771 42.039902,23.724476 
	C41.819363,25.761700 40.088490,28.420942 41.931843,29.723152 
	C43.683025,30.960247 46.439404,30.146524 48.605270,29.157698 
	C49.932117,28.551928 51.176189,27.764851 52.814522,26.862528 
	C53.717628,30.985809 51.827694,34.368126 51.651005,38.816998 
	C48.339897,35.690838 44.464378,32.553741 41.687656,34.480427 
	C39.288071,36.145428 41.509563,40.940971 41.734356,44.360313 
	C41.985435,48.179512 44.190842,51.112133 46.176437,54.827560 
	C41.134663,55.069805 36.425713,54.827049 32.357471,55.806919 
	C35.494678,41.473480 33.907513,27.367464 31.603260,12.947083 
	C42.304737,13.845366 53.317097,12.548902 65.051651,10.520364 
	C62.657074,16.281322 62.623493,21.863035 61.116707,27.341366 
	C56.565903,22.749758 55.648392,13.308168 45.637405,17.522049 
z"/>
<path fill="#262626" opacity="1.000000" stroke="none" 
	d="
M131.964890,22.183357 
	C131.058868,31.882273 129.103943,34.186665 122.357941,33.763924 
	C121.138649,33.687519 119.261917,33.957352 119.193428,32.145916 
	C119.019020,27.532457 118.158936,22.779055 120.103119,18.373552 
	C121.270004,15.729391 123.708290,14.478131 126.667793,14.925510 
	C130.533661,15.509903 131.558533,18.426477 131.964890,22.183357 
z"/>
<path fill="#222222" opacity="1.000000" stroke="none" 
	d="
M76.485329,46.359577 
	C72.498978,38.585480 74.476532,24.444601 80.098679,18.398960 
	C84.624268,13.532475 89.889618,14.297282 92.914635,20.260511 
	C96.533302,27.394033 93.392609,42.860401 87.198242,48.134594 
	C83.201385,51.537712 79.853989,49.786037 76.485329,46.359577 
z"/>
</svg>