<svg xmlns="http://www.w3.org/2000/svg" version="1.1" xmlns:xlink="http://www.w3.org/1999/xlink" xmlns:svgjs="http://svgjs.dev/svgjs" width="2000" height="2250" viewBox="0 0 2000 2250"><g transform="matrix(1,0,0,1,0.00006703124972773367,0)"><svg viewBox="0 0 320 360" data-background-color="#000000" preserveAspectRatio="xMidYMid meet" height="2250" width="2000" xmlns="http://www.w3.org/2000/svg" xmlns:xlink="http://www.w3.org/1999/xlink"><g id="tight-bounds" transform="matrix(1,0,0,1,0.00001072500003829191,0)"><svg viewBox="0 0 320 360" height="360" width="320"><g><svg></svg></g><g><svg viewBox="0 0 320 360" height="360" width="320"><g><path transform="translate(-21.67367,-1.67367) scale(3.63347,3.63347)" d="M87.84 28.16c-3.42-5.92-31.01-21.84-37.84-21.84-6.83 0-34.41 15.92-37.84 21.84-3.19 5.51-3.19 38.18 0 43.69 3.43 5.91 31.01 21.83 37.84 21.83 6.83 0 34.42-15.92 37.84-21.84 3.19-5.51 3.19-38.17 0-43.68zM91.14 26.25c-3.98-6.88-32.88-23.75-41.14-23.75-8.26 0-37.16 16.87-41.14 23.75-3.86 6.66-3.86 40.84 0 47.5 3.98 6.88 32.88 23.75 41.14 23.75 8.26 0 37.16-16.87 41.14-23.74 3.86-6.67 3.86-40.85 0-47.51zM88.78 72.39c-3.51 6.07-31.78 22.38-38.78 22.38-7 0-35.27-16.32-38.78-22.39-3.27-5.65-3.27-39.13 0-44.78 3.51-6.06 31.78-22.37 38.78-22.37 7 0 35.27 16.32 38.78 22.38 3.27 5.65 3.27 39.13 0 44.78z" fill="#000000" fill-rule="nonzero" stroke="none" stroke-width="1" stroke-linecap="butt" stroke-linejoin="miter" stroke-miterlimit="10" stroke-dasharray="" stroke-dashoffset="0" font-family="none" font-weight="none" font-size="none" text-anchor="none" style="mix-blend-mode: normal" data-fill-palette-color="tertiary"></path></g><g transform="matrix(1,0,0,1,48,111.40046976478207)"><svg viewBox="0 0 224 137.19906047043585" height="137.19906047043585" width="224"><g><svg viewBox="0 0 224 137.19906047043585" height="137.19906047043585" width="224"><g transform="matrix(1,0,0,1,0,82.5234444305853)"><svg viewBox="0 0 224 54.67561603985055" height="54.67561603985055" width="224"><g id="textblocktransform"><svg viewBox="0 0 224 54.67561603985055" height="54.67561603985055" width="224" id="textblock"><g><svg viewBox="0 0 224 29.489414694894144" height="29.489414694894144" width="224"><g transform="matrix(1,0,0,1,0,0)"><svg width="224" viewBox="4.45 -36.5 281.03000000000003 37" height="29.489414694894144" data-palette-color="#000000"><path d="M39.4 0L35.9 0 35.9-28.9 23.05-6.45 20.85-6.45 7.95-28.9 7.95 0 4.45 0 4.45-35.5 8.05-35.5 21.9-11.2 35.85-35.5 39.4-35.5 39.4 0ZM45.25-7.5L45.25-7.5Q45.25-9.95 46.65-11.73 48.05-13.5 50.52-14.48 53-15.45 56.25-15.45L56.25-15.45Q58.15-15.45 60.2-15.15 62.25-14.85 63.85-14.25L63.85-14.25 63.85-16.45Q63.85-19.75 61.9-21.7 59.95-23.65 56.5-23.65L56.5-23.65Q54.4-23.65 52.37-22.88 50.35-22.1 48.15-20.6L48.15-20.6 46.85-23Q49.4-24.75 51.85-25.63 54.3-26.5 56.85-26.5L56.85-26.5Q61.65-26.5 64.45-23.75 67.25-21 67.25-16.15L67.25-16.15 67.25-4.1Q67.25-3.4 67.55-3.08 67.85-2.75 68.5-2.7L68.5-2.7 68.5 0Q67.95 0.05 67.55 0.1 67.15 0.15 66.95 0.1L66.95 0.1Q65.7 0.05 65.05-0.7 64.4-1.45 64.35-2.3L64.35-2.3 64.3-4.2Q62.55-1.95 59.75-0.73 56.95 0.5 54.05 0.5L54.05 0.5Q51.55 0.5 49.52-0.58 47.5-1.65 46.37-3.48 45.25-5.3 45.25-7.5ZM62.7-5.5L62.7-5.5Q63.25-6.2 63.55-6.85 63.85-7.5 63.85-8L63.85-8 63.85-11.8Q62.15-12.45 60.32-12.8 58.5-13.15 56.65-13.15L56.65-13.15Q53-13.15 50.75-11.7 48.5-10.25 48.5-7.75L48.5-7.75Q48.5-6.3 49.25-5.03 50-3.75 51.45-2.93 52.9-2.1 54.85-2.1L54.85-2.1Q57.3-2.1 59.42-3.05 61.55-4 62.7-5.5ZM72.84-12.95L72.84-12.95Q72.84-16.65 74.37-19.73 75.89-22.8 78.59-24.65 81.3-26.5 84.75-26.5L84.75-26.5Q88-26.5 90.57-24.78 93.14-23.05 94.59-20.6L94.59-20.6 94.59-36.5 98-36.5 98-4.1Q98-3.4 98.3-3.08 98.59-2.75 99.19-2.7L99.19-2.7 99.19 0Q98.19 0.15 97.64 0.1L97.64 0.1Q96.59 0.05 95.8-0.75 95-1.55 95-2.5L95-2.5 95-5.05Q93.44-2.5 90.8-1 88.14 0.5 85.3 0.5L85.3 0.5Q82.59 0.5 80.32-0.6 78.05-1.7 76.37-3.6 74.69-5.5 73.77-7.93 72.84-10.35 72.84-12.95ZM94.59-8.95L94.59-8.95 94.59-17Q93.94-18.8 92.5-20.28 91.05-21.75 89.22-22.63 87.39-23.5 85.59-23.5L85.59-23.5Q83.5-23.5 81.8-22.63 80.09-21.75 78.87-20.25 77.64-18.75 77-16.85 76.34-14.95 76.34-12.95L76.34-12.95Q76.34-10.85 77.07-8.95 77.8-7.05 79.14-5.58 80.5-4.1 82.25-3.3 84-2.5 86.05-2.5L86.05-2.5Q87.34-2.5 88.75-3 90.14-3.5 91.42-4.38 92.69-5.25 93.55-6.45 94.39-7.65 94.59-8.95ZM118.69-26.15L118.69-23.05Q115.29-22.95 112.72-21.15 110.14-19.35 109.09-16.2L109.09-16.2 109.09 0 105.69 0 105.69-26.05 108.89-26.05 108.89-19.8Q110.24-22.55 112.47-24.25 114.69-25.95 117.19-26.15L117.19-26.15Q117.69-26.2 118.07-26.2 118.44-26.2 118.69-26.15L118.69-26.15ZM121.04-7.5L121.04-7.5Q121.04-9.95 122.44-11.73 123.84-13.5 126.31-14.48 128.79-15.45 132.04-15.45L132.04-15.45Q133.94-15.45 135.99-15.15 138.04-14.85 139.64-14.25L139.64-14.25 139.64-16.45Q139.64-19.75 137.69-21.7 135.74-23.65 132.29-23.65L132.29-23.65Q130.19-23.65 128.16-22.88 126.14-22.1 123.94-20.6L123.94-20.6 122.64-23Q125.19-24.75 127.64-25.63 130.09-26.5 132.64-26.5L132.64-26.5Q137.44-26.5 140.24-23.75 143.04-21 143.04-16.15L143.04-16.15 143.04-4.1Q143.04-3.4 143.34-3.08 143.64-2.75 144.29-2.7L144.29-2.7 144.29 0Q143.74 0.05 143.34 0.1 142.94 0.15 142.74 0.1L142.74 0.1Q141.49 0.05 140.84-0.7 140.19-1.45 140.14-2.3L140.14-2.3 140.09-4.2Q138.34-1.95 135.54-0.73 132.74 0.5 129.84 0.5L129.84 0.5Q127.34 0.5 125.31-0.58 123.29-1.65 122.17-3.48 121.04-5.3 121.04-7.5ZM138.49-5.5L138.49-5.5Q139.04-6.2 139.34-6.85 139.64-7.5 139.64-8L139.64-8 139.64-11.8Q137.94-12.45 136.12-12.8 134.29-13.15 132.44-13.15L132.44-13.15Q128.79-13.15 126.54-11.7 124.29-10.25 124.29-7.75L124.29-7.75Q124.29-6.3 125.04-5.03 125.79-3.75 127.24-2.93 128.69-2.1 130.64-2.1L130.64-2.1Q133.09-2.1 135.22-3.05 137.34-4 138.49-5.5ZM158.94 0.5L158.94 0.5Q155.74 0.5 152.99-0.55 150.24-1.6 148.24-3.75L148.24-3.75 149.64-6.15Q151.84-4.1 154.06-3.18 156.29-2.25 158.79-2.25L158.79-2.25Q161.84-2.25 163.74-3.48 165.64-4.7 165.64-7L165.64-7Q165.64-8.55 164.71-9.38 163.79-10.2 162.06-10.73 160.34-11.25 157.94-11.85L157.94-11.85Q155.24-12.6 153.41-13.43 151.59-14.25 150.66-15.53 149.74-16.8 149.74-18.85L149.74-18.85Q149.74-21.4 151.01-23.08 152.29-24.75 154.51-25.63 156.74-26.5 159.49-26.5L159.49-26.5Q162.49-26.5 164.79-25.55 167.09-24.6 168.54-22.9L168.54-22.9 166.89-20.6Q165.49-22.2 163.56-22.98 161.64-23.75 159.29-23.75L159.29-23.75Q157.69-23.75 156.24-23.33 154.79-22.9 153.86-21.93 152.94-20.95 152.94-19.25L152.94-19.25Q152.94-17.85 153.64-17.07 154.34-16.3 155.74-15.78 157.14-15.25 159.19-14.65L159.19-14.65Q162.14-13.85 164.34-13.03 166.54-12.2 167.74-10.9 168.94-9.6 168.94-7.25L168.94-7.25Q168.94-3.6 166.19-1.55 163.44 0.5 158.94 0.5ZM168.99-35.5L172.64-35.5 185.34-4.35 197.99-35.5 201.64-35.5 186.94 0 183.74 0 168.99-35.5ZM201.33-7.5L201.33-7.5Q201.33-9.95 202.73-11.73 204.13-13.5 206.61-14.48 209.08-15.45 212.33-15.45L212.33-15.45Q214.23-15.45 216.28-15.15 218.33-14.85 219.93-14.25L219.93-14.25 219.93-16.45Q219.93-19.75 217.98-21.7 216.03-23.65 212.58-23.65L212.58-23.65Q210.48-23.65 208.46-22.88 206.43-22.1 204.23-20.6L204.23-20.6 202.93-23Q205.48-24.75 207.93-25.63 210.38-26.5 212.93-26.5L212.93-26.5Q217.73-26.5 220.53-23.75 223.33-21 223.33-16.15L223.33-16.15 223.33-4.1Q223.33-3.4 223.63-3.08 223.93-2.75 224.58-2.7L224.58-2.7 224.58 0Q224.03 0.05 223.63 0.1 223.23 0.15 223.03 0.1L223.03 0.1Q221.78 0.05 221.13-0.7 220.48-1.45 220.43-2.3L220.43-2.3 220.38-4.2Q218.63-1.95 215.83-0.73 213.03 0.5 210.13 0.5L210.13 0.5Q207.63 0.5 205.61-0.58 203.58-1.65 202.46-3.48 201.33-5.3 201.33-7.5ZM218.78-5.5L218.78-5.5Q219.33-6.2 219.63-6.85 219.93-7.5 219.93-8L219.93-8 219.93-11.8Q218.23-12.45 216.41-12.8 214.58-13.15 212.73-13.15L212.73-13.15Q209.08-13.15 206.83-11.7 204.58-10.25 204.58-7.75L204.58-7.75Q204.58-6.3 205.33-5.03 206.08-3.75 207.53-2.93 208.98-2.1 210.93-2.1L210.93-2.1Q213.38-2.1 215.51-3.05 217.63-4 218.78-5.5ZM228.58-7.5L228.58-7.5Q228.58-9.95 229.98-11.73 231.38-13.5 233.86-14.48 236.33-15.45 239.58-15.45L239.58-15.45Q241.48-15.45 243.53-15.15 245.58-14.85 247.18-14.25L247.18-14.25 247.18-16.45Q247.18-19.75 245.23-21.7 243.28-23.65 239.83-23.65L239.83-23.65Q237.73-23.65 235.71-22.88 233.68-22.1 231.48-20.6L231.48-20.6 230.18-23Q232.73-24.75 235.18-25.63 237.63-26.5 240.18-26.5L240.18-26.5Q244.98-26.5 247.78-23.75 250.58-21 250.58-16.15L250.58-16.15 250.58-4.1Q250.58-3.4 250.88-3.08 251.18-2.75 251.83-2.7L251.83-2.7 251.83 0Q251.28 0.05 250.88 0.1 250.48 0.15 250.28 0.1L250.28 0.1Q249.03 0.05 248.38-0.7 247.73-1.45 247.68-2.3L247.68-2.3 247.63-4.2Q245.88-1.95 243.08-0.73 240.28 0.5 237.38 0.5L237.38 0.5Q234.88 0.5 232.86-0.58 230.83-1.65 229.71-3.48 228.58-5.3 228.58-7.5ZM246.03-5.5L246.03-5.5Q246.58-6.2 246.88-6.85 247.18-7.5 247.18-8L247.18-8 247.18-11.8Q245.48-12.45 243.66-12.8 241.83-13.15 239.98-13.15L239.98-13.15Q236.33-13.15 234.08-11.7 231.83-10.25 231.83-7.75L231.83-7.75Q231.83-6.3 232.58-5.03 233.33-3.75 234.78-2.93 236.23-2.1 238.18-2.1L238.18-2.1Q240.63-2.1 242.76-3.05 244.88-4 246.03-5.5ZM266.48 0.5L266.48 0.5Q263.28 0.5 260.53-0.55 257.78-1.6 255.78-3.75L255.78-3.75 257.18-6.15Q259.38-4.1 261.6-3.18 263.83-2.25 266.33-2.25L266.33-2.25Q269.38-2.25 271.28-3.48 273.18-4.7 273.18-7L273.18-7Q273.18-8.55 272.25-9.38 271.33-10.2 269.6-10.73 267.88-11.25 265.48-11.85L265.48-11.85Q262.78-12.6 260.95-13.43 259.13-14.25 258.2-15.53 257.28-16.8 257.28-18.85L257.28-18.85Q257.28-21.4 258.55-23.08 259.83-24.75 262.05-25.63 264.28-26.5 267.03-26.5L267.03-26.5Q270.03-26.5 272.33-25.55 274.63-24.6 276.08-22.9L276.08-22.9 274.43-20.6Q273.03-22.2 271.1-22.98 269.18-23.75 266.83-23.75L266.83-23.75Q265.23-23.75 263.78-23.33 262.33-22.9 261.4-21.93 260.48-20.95 260.48-19.25L260.48-19.25Q260.48-17.85 261.18-17.07 261.88-16.3 263.28-15.78 264.68-15.25 266.73-14.65L266.73-14.65Q269.68-13.85 271.88-13.03 274.08-12.2 275.28-10.9 276.48-9.6 276.48-7.25L276.48-7.25Q276.48-3.6 273.73-1.55 270.98 0.5 266.48 0.5ZM285.48 0L282.08 0 282.08-26.05 285.48-26.05 285.48 0ZM285.48-31.5L282.08-31.5 282.08-36.5 285.48-36.5 285.48-31.5Z" opacity="1" transform="matrix(1,0,0,1,0,0)" fill="#ffffff" class="wordmark-text-0" data-fill-palette-color="quaternary" id="text-0"></path></svg></g></svg></g><g transform="matrix(1,0,0,1,56.666740617254,36.45115775840598)"><svg viewBox="0 0 110.666518765492 18.22445828144458" height="18.22445828144458" width="110.666518765492"><g transform="matrix(1,0,0,1,0,0)"><svg width="110.666518765492" viewBox="4 -39.95 285.08 46.95" height="18.22445828144458" data-palette-color="#000000"><path d="M26.15-10.5L26.15-37.55Q26.15-39.95 29.1-39.95L29.1-39.95Q32.05-39.95 32.05-37.55L32.05-37.55 32.05-3.05Q32.05-1.3 30.2-0.5L30.2-0.5 30.25-0.5Q29.45-0.15 28.55 0.05 27.65 0.25 26.8 0.25L26.8 0.25Q26.15 0.25 25.45 0.13 24.75 0 24.13-0.28 23.5-0.55 22.98-1.03 22.45-1.5 22.15-2.2L22.15-2.2 11.3-29.25 9.95-29.1 9.95-2.1Q9.95 0.3 6.95 0.3L6.95 0.3Q4 0.3 4-2.1L4-2.1 4-36.55Q4-38.6 5.8-39.3L5.8-39.3Q7.45-39.95 9.3-39.95L9.3-39.95Q10.6-39.95 11.93-39.43 13.25-38.9 13.95-37.45L13.95-37.45 24.75-10.35 26.15-10.5ZM53.15 0L46.6 0Q45.05 0 43.65-0.43 42.25-0.85 40.95-1.65L40.95-1.65 40.95-1.6Q38.5-3.15 38.5-7.3L38.5-7.3 38.5-9.75Q38.5-11.8 39.22-13.33 39.95-14.85 41.25-15.75L41.25-15.75 41.2-15.75Q42.45-16.6 43.85-17.03 45.25-17.45 46.55-17.45L46.55-17.45 57.6-17.45 57.6-22.1Q57.6-23.35 56.82-24.38 56.05-25.4 54.2-25.4L54.2-25.4 48.35-25.4Q46.45-25.4 45.72-24.48 45-23.55 45-22.3L45-22.3 45-21.9Q45-19.3 42.2-19.3L42.2-19.3Q39.4-19.3 39.4-21.9L39.4-21.9 39.4-22.35Q39.4-24.4 40.12-25.8 40.85-27.2 42.1-28.15L42.1-28.15 42.05-28.15Q43.35-29 44.77-29.55 46.2-30.1 47.5-30.1L47.5-30.1 55.1-30.1Q56.35-30.1 57.77-29.55 59.2-29 60.45-28.15L60.45-28.15 60.4-28.15Q61.7-27.2 62.4-25.68 63.1-24.15 63.1-22.15L63.1-22.15 63.1-2.1Q63.1 0.3 60.35 0.3L60.35 0.3Q59.8 0.3 59.32 0.25 58.85 0.2 58.47-0.03 58.1-0.25 57.87-0.68 57.65-1.1 57.65-1.8L57.65-1.8 57.6-12.75 47.5-12.75Q46.4-12.75 45.8-12.5 45.2-12.25 44.85-11.7L44.85-11.7Q44.45-10.85 44.27-10.38 44.1-9.9 44.1-9.3L44.1-9.3 44.1-7.35Q44.1-6.05 44.87-5.38 45.65-4.7 47.55-4.7L47.55-4.7 53.15-4.7Q55-4.7 55-2.35L55-2.35Q55-1.35 54.55-0.68 54.1 0 53.15 0L53.15 0ZM85.05-1.95L85.05-21.75Q85.05-22.4 84.84-23.03 84.65-23.65 84.34-24.2L84.34-24.2Q83.7-25.4 81.65-25.4L81.65-25.4 78.45-25.4Q76.4-25.4 75.7-24.2L75.7-24.2Q75.09-23.05 75.09-21.75L75.09-21.75 75.09-1.95Q75.09 0.4 72.34 0.4L72.34 0.4Q69.5 0.4 69.5-1.95L69.5-1.95 69.5-22.2Q69.5-26.3 72.2-28.2L72.2-28.2Q74.95-30.1 77.55-30.1L77.55-30.1 82.59-30.1Q83.75-30.1 85.15-29.65 86.55-29.2 87.84-28.25L87.84-28.25Q89.09-29.2 90.47-29.65 91.84-30.1 93.09-30.1L93.09-30.1 98.09-30.1Q100.75-30.1 103.4-28.2L103.4-28.2Q106.15-26.35 106.15-22.2L106.15-22.2 106.15-1.95Q106.15 0.4 103.34 0.4L103.34 0.4Q100.55 0.4 100.55-1.95L100.55-1.95 100.55-21.75Q100.55-22.4 100.4-23.05 100.25-23.7 99.84-24.25L99.84-24.25 99.9-24.2Q99.5-24.85 98.9-25.13 98.3-25.4 97.15-25.4L97.15-25.4 94-25.4Q91.9-25.4 91.25-24.2L91.25-24.2Q90.59-23.1 90.59-21.75L90.59-21.75 90.59-1.95Q90.59 0.4 87.84 0.4L87.84 0.4Q85.05 0.4 85.05-1.95L85.05-1.95ZM127.74-1.95L127.74-21.75Q127.74-22.4 127.54-23.03 127.34-23.65 127.04-24.2L127.04-24.2Q126.39-25.4 124.34-25.4L124.34-25.4 121.14-25.4Q119.09-25.4 118.39-24.2L118.39-24.2Q117.79-23.05 117.79-21.75L117.79-21.75 117.79-1.95Q117.79 0.4 115.04 0.4L115.04 0.4Q112.19 0.4 112.19-1.95L112.19-1.95 112.19-22.2Q112.19-26.3 114.89-28.2L114.89-28.2Q117.64-30.1 120.24-30.1L120.24-30.1 125.29-30.1Q126.44-30.1 127.84-29.65 129.24-29.2 130.54-28.25L130.54-28.25Q131.79-29.2 133.17-29.65 134.54-30.1 135.79-30.1L135.79-30.1 140.79-30.1Q143.44-30.1 146.09-28.2L146.09-28.2Q148.84-26.35 148.84-22.2L148.84-22.2 148.84-1.95Q148.84 0.4 146.04 0.4L146.04 0.4Q143.24 0.4 143.24-1.95L143.24-1.95 143.24-21.75Q143.24-22.4 143.09-23.05 142.94-23.7 142.54-24.25L142.54-24.25 142.59-24.2Q142.19-24.85 141.59-25.13 140.99-25.4 139.84-25.4L139.84-25.4 136.69-25.4Q134.59-25.4 133.94-24.2L133.94-24.2Q133.29-23.1 133.29-21.75L133.29-21.75 133.29-1.95Q133.29 0.4 130.54 0.4L130.54 0.4Q127.74 0.4 127.74-1.95L127.74-1.95ZM169.04 0L162.49 0Q160.94 0 159.54-0.43 158.14-0.85 156.84-1.65L156.84-1.65 156.84-1.6Q154.39-3.15 154.39-7.3L154.39-7.3 154.39-9.75Q154.39-11.8 155.12-13.33 155.84-14.85 157.14-15.75L157.14-15.75 157.09-15.75Q158.34-16.6 159.74-17.03 161.14-17.45 162.44-17.45L162.44-17.45 173.49-17.45 173.49-22.1Q173.49-23.35 172.72-24.38 171.94-25.4 170.09-25.4L170.09-25.4 164.24-25.4Q162.34-25.4 161.62-24.48 160.89-23.55 160.89-22.3L160.89-22.3 160.89-21.9Q160.89-19.3 158.09-19.3L158.09-19.3Q155.29-19.3 155.29-21.9L155.29-21.9 155.29-22.35Q155.29-24.4 156.02-25.8 156.74-27.2 157.99-28.15L157.99-28.15 157.94-28.15Q159.24-29 160.67-29.55 162.09-30.1 163.39-30.1L163.39-30.1 170.99-30.1Q172.24-30.1 173.67-29.55 175.09-29 176.34-28.15L176.34-28.15 176.29-28.15Q177.59-27.2 178.29-25.68 178.99-24.15 178.99-22.15L178.99-22.15 178.99-2.1Q178.99 0.3 176.24 0.3L176.24 0.3Q175.69 0.3 175.22 0.25 174.74 0.2 174.37-0.03 173.99-0.25 173.77-0.68 173.54-1.1 173.54-1.8L173.54-1.8 173.49-12.75 163.39-12.75Q162.29-12.75 161.69-12.5 161.09-12.25 160.74-11.7L160.74-11.7Q160.34-10.85 160.17-10.38 159.99-9.9 159.99-9.3L159.99-9.3 159.99-7.35Q159.99-6.05 160.77-5.38 161.54-4.7 163.44-4.7L163.44-4.7 169.04-4.7Q170.89-4.7 170.89-2.35L170.89-2.35Q170.89-1.35 170.44-0.68 169.99 0 169.04 0L169.04 0ZM225.04-1.2L214.04-34.8 203.09-1.2 203.09-1.25Q202.79-0.5 202.26-0.03 201.74 0.45 200.99 0.45L200.99 0.45Q200.59 0.45 200.21 0.38 199.84 0.3 199.44 0.2L199.44 0.2 199.49 0.2Q196.64-0.7 197.39-3L197.39-3 208.79-37.65Q209.04-38.45 209.66-39 210.29-39.55 211.14-39.65L211.14-39.65Q211.99-39.8 212.79-39.88 213.59-39.95 214.04-39.95L214.04-39.95Q214.49-39.95 215.29-39.88 216.09-39.8 216.94-39.7L216.94-39.7Q217.64-39.6 218.31-38.95 218.99-38.3 219.34-37.65L219.34-37.65Q222.14-29.05 225.01-20.33 227.89-11.6 230.69-3L230.69-3Q231.39-0.7 228.59 0.2L228.59 0.2Q228.19 0.3 227.86 0.38 227.54 0.45 227.14 0.45L227.14 0.45Q226.44 0.45 225.86-0.03 225.29-0.5 225.04-1.25L225.04-1.25 225.04-1.2ZM217.79-12L217.79-12Q217.79-10.4 216.66-9.28 215.54-8.15 213.94-8.15L213.94-8.15Q212.34-8.15 211.24-9.28 210.14-10.4 210.14-12L210.14-12Q210.14-13.6 211.24-14.73 212.34-15.85 213.94-15.85L213.94-15.85Q215.54-15.85 216.66-14.73 217.79-13.6 217.79-12ZM250.78 0L244.83 0Q243.03 0 242.93-2.35L242.93-2.35Q242.93-4.7 244.83-4.7L244.83-4.7 249.88-4.7Q251.73-4.7 252.51-5.75 253.28-6.8 253.28-8L253.28-8 253.28-22.1Q253.28-23.35 252.51-24.43 251.73-25.5 249.83-25.4L249.83-25.4 240.23-25.4 240.23 4.65Q240.23 7 237.48 7L237.48 7Q234.73 7 234.73 4.6L234.73 4.6 234.73-27.15Q234.73-28.9 235.63-29.5 236.53-30.1 237.83-30.1L237.83-30.1 250.78-30.1Q252.08-30.1 253.41-29.65 254.73-29.2 256.13-28.4L256.13-28.4Q257.33-27.55 258.06-26.03 258.78-24.5 258.78-22.45L258.78-22.45 258.78-7.65Q258.78-3.55 256.13-1.8L256.13-1.8Q253.33 0 250.78 0L250.78 0ZM281.08 0L275.13 0Q273.33 0 273.23-2.35L273.23-2.35Q273.23-4.7 275.13-4.7L275.13-4.7 280.18-4.7Q282.03-4.7 282.81-5.75 283.58-6.8 283.58-8L283.58-8 283.58-22.1Q283.58-23.35 282.81-24.43 282.03-25.5 280.13-25.4L280.13-25.4 270.53-25.4 270.53 4.65Q270.53 7 267.78 7L267.78 7Q265.03 7 265.03 4.6L265.03 4.6 265.03-27.15Q265.03-28.9 265.93-29.5 266.83-30.1 268.13-30.1L268.13-30.1 281.08-30.1Q282.38-30.1 283.71-29.65 285.03-29.2 286.43-28.4L286.43-28.4Q287.63-27.55 288.36-26.03 289.08-24.5 289.08-22.45L289.08-22.45 289.08-7.65Q289.08-3.55 286.43-1.8L286.43-1.8Q283.63 0 281.08 0L281.08 0Z" opacity="1" transform="matrix(1,0,0,1,0,0)" fill="#ffffff" class="slogan-text-1" data-fill-palette-color="quaternary" id="text-1"></path></svg></g></svg></g></svg></g></svg></g><g transform="matrix(1,0,0,1,50.1762217058229,0)"><svg viewBox="0 0 123.6475565883542 75.56170136707347" height="75.56170136707347" width="123.6475565883542"><g><svg xmlns="http://www.w3.org/2000/svg" xmlns:xlink="http://www.w3.org/1999/xlink" version="1.1" x="8" y="0" viewBox="5 18.3555613063506 90.10000000000002 63.24443869364939" enable-background="new 0 0 100 100" xml:space="preserve" height="75.56170136707347" width="107.6475565883542" class="icon-icon-0" data-fill-palette-color="quaternary" id="icon-0"><g fill="#000000" data-fill-palette-color="quaternary"><path d="M32.5 51.1l1.4-0.1c-0.6-0.3-0.9-0.5-1.2-0.7 1 0.3 3.4-1.3 3.4-1.3-3.8-1.2-1.2-5.4-1.1-10 0.1-3.8 0.6-11.8-3.4-14.8-1.2-0.9-2.2 0-2.2 0-0.3-4.3-9.7-4.6-14.2-2-2 1.2-3.6 2-5.8 5.9-2.2 3.8-0.5 11.3 1.3 14.1C12.5 45 11 45.8 9.3 47 7.9 48.1 5 47.2 5 47.2s0.3 1.6 1.4 2.3c1.9 1.1 2.7 0.4 1.9 1.1 0 0-1.1 0.7 1.3 2.4l1.5-0.1c-1.1 1-1.7 2.2-0.6 3.4 3 3.1 10.2 11.1 10.2 11.1s1.2 1.6 2.8 0.8l-0.2 0.2c0.5-0.1 1-0.3 1.5-0.9 2.3-2.1 10-11 10-11S38.3 53.9 32.5 51.1zM32.4 49.8L32.4 49.8 32.4 49.8zM29.4 62.4c0.3-0.3 0.5-0.6 0.7-0.8C30 61.8 29.8 62.1 29.4 62.4z" fill="#ffffff" data-fill-palette-color="quaternary"></path><path d="M91.4 51.1l1.4-0.1c-0.6-0.3-0.9-0.5-1.1-0.7 1 0.3 3.4-1.2 3.4-1.2-3.8-1.2-1.2-5.4-1.1-10 0.1-3.8 0.6-11.8-3.4-14.8-1.2-0.9-2.2 0-2.2 0-0.3-4.3-9.7-4.6-14.2-2-2 1.2-3.6 2-5.8 5.9-2.2 3.7-0.5 11.3 1.3 14.1 1.8 2.8 0.3 3.6-1.4 4.8-1.5 1.1-4.3 0.2-4.3 0.2s0.3 1.6 1.4 2.3c1.9 1.1 2.7 0.4 1.9 1.1 0 0-1.1 0.7 1.3 2.4l1.5-0.1c-1.1 1-1.7 2.2-0.6 3.4 3 3.1 10.3 11.1 10.3 11.1s1.2 1.6 2.9 0.8l-0.2 0.2c0.5-0.1 1-0.3 1.5-0.9 2.3-2.1 10-11 10-11S97.1 53.9 91.4 51.1zM91.2 49.8L91.2 49.8 91.2 49.8zM88.3 62.4c0.2-0.3 0.5-0.6 0.7-0.8C88.8 61.8 88.6 62.1 88.3 62.4z" fill="#ffffff" data-fill-palette-color="quaternary"></path><path d="M56.2 55.6L56.2 55.6l0.3-0.2 0.3-0.2L57 55l0.3-0.2 0.2-0.2 0.3-0.3 0.2-0.2 0.3-0.3 0.2-0.2 0.3-0.3 0.2-0.3 0.2-0.3 0.2-0.3 0.2-0.3 0.2-0.3 0.2-0.3 0.2-0.3 0.2-0.3 0.2-0.3 0.2-0.3 0.2-0.3 0.2-0.3 0.2-0.3 0.2-0.3 0.2-0.4 0.1-0.3 0.2-0.4 0.1-0.2 0.2 0.2c0.6 0.3 1.5-0.7 2.2-2.1 0.6-1.4 0.7-2.8 0.1-3-0.4-0.2-0.9 0.2-1.4 0.8l-0.5-0.1 0.5 0.1C64.9 32.1 60.1 26 60.1 26s-0.3-6.1-2.5-5c-1.9 0.9-2.3 0.8-2.3 0.8s-1.1-5.5-2.8-2.6c-0.9 1.5-6 1.8-10.2 5.5-7 6.1-4.7 17.3-4.4 18.9-0.4-0.5-0.8-0.8-1.1-0.7-0.6 0.2-0.7 1.6-0.2 3 0.5 1.5 1.4 2.5 2 2.3 0.2-0.1 0.4-0.3 0.4-0.6 1.4 3.5 4.2 6.5 6.8 8.3-0.9 0.2-1.5 0.4-1.5 0.4s-10.8 3.9-7.3 7.7C40.3 67.7 49 77.1 49 77.1s1.1 1.5 2.8 1.2l0 0 0.1 0 0.3-0.1 0.2-0.1 0.3-0.1 0.2-0.2 0.2-0.1 0.5-0.4c2.7-2.5 11.8-13.1 11.8-13.1S71.4 59.5 56.2 55.6z" fill="#ffffff" data-fill-palette-color="quaternary"></path><path d="M51.4 73C46.2 73 42 75 42 77.3c0 2.4 4.2 4.3 9.4 4.3 5.2 0 9.4-1.9 9.4-4.3C60.9 75 56.6 73 51.4 73zM51.4 79.7c-3.4 0-6.1-1.2-6.1-2.8 0-1.5 2.7-2.8 6.1-2.8 3.4 0 6.1 1.2 6.1 2.8C57.6 78.5 54.8 79.7 51.4 79.7z" fill="#ffffff" data-fill-palette-color="quaternary"></path><path d="M81.8 66.5c-3.3 0-6.1 1.2-6.1 2.8 0 1.5 2.7 2.8 6.1 2.8 3.3 0 6.1-1.2 6.1-2.8C87.8 67.8 85.1 66.5 81.8 66.5zM81.8 70.9c-2.2 0-3.9-0.8-3.9-1.8 0-1 1.8-1.8 3.9-1.8 2.2 0 3.9 0.8 3.9 1.8C85.7 70.1 83.9 70.9 81.8 70.9z" fill="#ffffff" data-fill-palette-color="quaternary"></path><path d="M22.7 66.5c-3.3 0-6.1 1.2-6.1 2.8 0 1.5 2.7 2.8 6.1 2.8 3.3 0 6.1-1.2 6.1-2.8C28.8 67.8 26.1 66.5 22.7 66.5zM22.7 70.9c-2.2 0-3.9-0.8-3.9-1.8 0-1 1.8-1.8 3.9-1.8 2.2 0 3.9 0.8 3.9 1.8C26.7 70.1 24.9 70.9 22.7 70.9z" fill="#ffffff" data-fill-palette-color="quaternary"></path><path d="M38.4 79.9c-0.5 0-1.1 0-1.6 0-0.5 0-0.9-0.5-0.9-1 0-0.5 0.5-1 1-0.9 0.9 0 1.9 0 2.9 0 0.5 0 1 0.4 1 0.9 0 0.5-0.4 1-0.9 1C39.4 79.9 38.9 79.9 38.4 79.9zM33 79.4l-0.2 0c-1.3-0.2-2.6-0.6-3.9-1-0.5-0.2-0.8-0.7-0.6-1.2s0.7-0.8 1.2-0.6c1.1 0.4 2.4 0.7 3.6 0.9 0.5 0.1 0.9 0.6 0.8 1.1C33.9 79.1 33.5 79.4 33 79.4zM25.7 77l-0.5-0.1c-2.2-1.2-3.3-2.3-3.4-2.4-0.4-0.4-0.4-1 0-1.4 0.4-0.4 1-0.4 1.4 0 0 0 1 1 2.9 2 0.5 0.3 0.6 0.8 0.4 1.3C26.4 76.8 26.1 77 25.7 77z" fill="#ffffff" data-fill-palette-color="quaternary"></path><path d="M62.5 79.9c-0.5 0-1-0.5-0.9-1 0-0.5 0.5-0.9 1-0.9 1 0 2 0 2.9 0 0.5-0.1 1 0.4 1 0.9 0 0.5-0.4 1-0.9 1-0.5 0-1.1 0-1.6 0C63.5 79.9 63 79.9 62.5 79.9zM68.4 78.6c-0.1-0.5 0.3-1 0.8-1.1 1.2-0.2 2.5-0.5 3.6-0.9 0.5-0.2 1.1 0.1 1.2 0.6 0.2 0.5-0.1 1.1-0.6 1.2-1.2 0.4-2.5 0.7-3.9 1l-0.2 0C68.9 79.4 68.5 79.1 68.4 78.6zM75.8 76.5c-0.3-0.5-0.1-1 0.4-1.3 1.9-1.1 2.9-2 2.9-2 0.4-0.4 1-0.4 1.4 0 0.4 0.4 0.4 1 0 1.4-0.1 0-1.2 1.2-3.4 2.4L76.6 77C76.3 77 75.9 76.8 75.8 76.5z" fill="#ffffff" data-fill-palette-color="quaternary"></path></g></svg></g></svg></g><g><rect width="50.1762217058229" height="2.659385850261519" y="71.90231551681195" x="173.8237782941771" fill="#000000" data-fill-palette-color="accent"></rect><rect width="50.1762217058229" height="2.659385850261519" y="71.90231551681195" x="0" fill="#000000" data-fill-palette-color="accent"></rect><rect width="50.1762217058229" height="2.659385850261519" y="66.58354381628891" x="173.8237782941771" fill="#000000" data-fill-palette-color="accent"></rect><rect width="50.1762217058229" height="2.659385850261519" y="66.58354381628891" x="0" fill="#000000" data-fill-palette-color="accent"></rect></g></svg></g></svg></g></svg></g><defs></defs></svg><rect width="320" height="360" fill="none" stroke="none" visibility="hidden"></rect></g></svg></g></svg>